<svg xmlns="http://www.w3.org/2000/svg" viewBox="0 0 1200 1600" width="1200" height="1600" role="img" aria-label="Abstract PURITY editorial image">
    <defs>
      <filter id="grain"><feTurbulence type="fractalNoise" baseFrequency="0.82" numOctaves="4" seed="11"/><feColorMatrix type="saturate" values="0"/><feComponentTransfer><feFuncA type="table" tableValues="0 0.14"/></feComponentTransfer></filter>
      <linearGradient id="g" x1="0" y1="0" x2="1" y2="1"><stop offset="0" stop-color="#fffaf2"/><stop offset="0.58" stop-color="#e3d4bf"/><stop offset="1" stop-color="#22201d"/></linearGradient>
      <radialGradient id="r" cx="68%" cy="24%" r="72%"><stop offset="0" stop-color="#ffffff" stop-opacity="0.62"/><stop offset="0.48" stop-color="#e3d4bf" stop-opacity="0.34"/><stop offset="1" stop-color="#22201d" stop-opacity="0.24"/></radialGradient>
    </defs>
    <rect width="1200" height="1600" fill="url(#g)"/>
    <rect width="1200" height="1600" fill="url(#r)"/>
    <rect width="1200" height="1600" filter="url(#grain)" opacity="0.55"/>
  <g fill="none" stroke="#22201d" stroke-opacity="0.22"><path d="M 140 0 V1600"/><path d="M 266 0 V1600"/><path d="M 392 0 V1600"/><path d="M 518 0 V1600"/><path d="M 644 0 V1600"/><path d="M 770 0 V1600"/><path d="M 896 0 V1600"/><path d="M 1022 0 V1600"/><path d="M0 160 H1200"/><path d="M0 300 H1200"/><path d="M0 440 H1200"/><path d="M0 580 H1200"/><path d="M0 720 H1200"/><path d="M0 860 H1200"/><path d="M0 1000 H1200"/><path d="M0 1140 H1200"/><path d="M0 1280 H1200"/><path d="M0 1420 H1200"/></g><path d="M148 1230 C340 980 580 1090 738 780 C836 586 958 426 1116 332" fill="none" stroke="#22201d" stroke-width="7" stroke-opacity="0.58"/></svg>
