<svg xmlns="http://www.w3.org/2000/svg" viewBox="0 0 1200 1600" width="1200" height="1600" role="img" aria-label="Abstract PURITY palette study">
  <defs>
    <filter id="grain"><feTurbulence type="fractalNoise" baseFrequency="0.76" numOctaves="4" seed="31"/><feColorMatrix type="saturate" values="0"/><feComponentTransfer><feFuncA type="table" tableValues="0 0.12"/></feComponentTransfer></filter>
    <linearGradient id="bg" x1="0" y1="0" x2="1" y2="1"><stop offset="0" stop-color="#fbfaf7"/><stop offset="0.54" stop-color="#d8d0c4"/><stop offset="1" stop-color="#1f1d1b"/></linearGradient>
    <linearGradient id="card" x1="0" y1="0" x2="1" y2="1"><stop offset="0" stop-color="#ffffff" stop-opacity="0.82"/><stop offset="1" stop-color="#b8aaa0" stop-opacity="0.18"/></linearGradient>
  </defs>
  <rect width="1200" height="1600" fill="url(#bg)"/>
  <rect width="1200" height="1600" filter="url(#grain)" opacity="0.62"/>
  <g transform="translate(145 190)" fill="url(#card)" stroke="#1f1d1b" stroke-opacity="0.26">
    <rect x="0" y="0" width="390" height="520" rx="10"/>
    <rect x="430" y="88" width="330" height="440" rx="10"/>
    <rect x="130" y="610" width="520" height="300" rx="10"/>
  </g>
  <g fill="none" stroke="#1f1d1b" stroke-linecap="round">
    <path d="M190 1140 C350 1040 516 1094 665 965 C802 846 910 772 1040 812" stroke-width="5" stroke-opacity="0.5"/>
    <path d="M240 420 H468 M240 492 H402 M630 612 H812 M630 684 H742" stroke-width="3" stroke-opacity="0.36"/>
  </g>
  <g transform="translate(202 890)">
    <circle cx="0" cy="0" r="46" fill="#f7f0e7" fill-opacity="0.82"/>
    <circle cx="84" cy="28" r="46" fill="#c7b7a6" fill-opacity="0.76"/>
    <circle cx="168" cy="-8" r="46" fill="#8f8378" fill-opacity="0.62"/>
  </g>
</svg>
