<svg xmlns="http://www.w3.org/2000/svg" viewBox="0 0 1200 1600" width="1200" height="1600" role="img" aria-label="Abstract PURITY tailoring study">
  <defs>
    <filter id="grain"><feTurbulence type="fractalNoise" baseFrequency="0.8" numOctaves="4" seed="37"/><feColorMatrix type="saturate" values="0"/><feComponentTransfer><feFuncA type="table" tableValues="0 0.13"/></feComponentTransfer></filter>
    <linearGradient id="bg" x1="0" y1="0" x2="1" y2="1"><stop offset="0" stop-color="#f8f6f1"/><stop offset="0.58" stop-color="#cfc3b7"/><stop offset="1" stop-color="#24211f"/></linearGradient>
    <radialGradient id="light" cx="72%" cy="23%" r="68%"><stop offset="0" stop-color="#ffffff" stop-opacity="0.68"/><stop offset="0.55" stop-color="#d8cabe" stop-opacity="0.24"/><stop offset="1" stop-color="#24211f" stop-opacity="0.2"/></radialGradient>
  </defs>
  <rect width="1200" height="1600" fill="url(#bg)"/>
  <rect width="1200" height="1600" fill="url(#light)"/>
  <rect width="1200" height="1600" filter="url(#grain)" opacity="0.6"/>
  <g fill="none" stroke="#24211f" stroke-linecap="round" stroke-linejoin="round">
    <path d="M588 214 C512 390 488 548 520 714 C548 858 632 974 608 1154" stroke-width="8" stroke-opacity="0.5"/>
    <path d="M590 214 C690 398 762 542 738 706 C718 846 650 960 678 1162" stroke-width="4" stroke-opacity="0.34"/>
    <path d="M338 520 C472 432 668 418 870 522" stroke-width="3" stroke-opacity="0.42"/>
    <path d="M322 1024 C510 1116 726 1114 912 1016" stroke-width="3" stroke-opacity="0.36"/>
  </g>
  <g stroke="#24211f" stroke-opacity="0.3">
    <path d="M210 1320 H990" stroke-width="1"/>
    <path d="M240 1320 V1276 M310 1320 V1290 M380 1320 V1276 M450 1320 V1290 M520 1320 V1276 M590 1320 V1290 M660 1320 V1276 M730 1320 V1290 M800 1320 V1276 M870 1320 V1290 M940 1320 V1276" stroke-width="2"/>
  </g>
</svg>
