<?xml version="1.0" encoding="UTF-8"?>
<svg xmlns="http://www.w3.org/2000/svg" xmlns:xlink="http://www.w3.org/1999/xlink" width="352.8pt" height="180pt" viewBox="0 0 352.8 180">
<path fill-rule="nonzero" fill="rgb(56.863403%, 56.079102%, 55.686951%)" fill-opacity="1" d="M 91.566406 108.230469 C 91.492188 108.375 91.417969 108.515625 91.347656 108.652344 C 91.410156 108.527344 91.480469 108.398438 91.566406 108.230469 M 124.054688 68.515625 C 123.570312 66.289062 120.46875 65.554688 117.4375 65.660156 C 114.851562 65.75 112.34375 66.496094 111.277344 66.925781 C 110.214844 67.351562 109.113281 67.859375 108.078125 68.402344 C 107.496094 68.707031 106.996094 69.136719 106.460938 69.519531 C 105.625 70.121094 104.820312 70.769531 104.03125 71.441406 C 102.433594 72.796875 100.902344 74.253906 99.464844 75.800781 C 98.996094 76.308594 98.539062 76.820312 98.105469 77.359375 L 95.21875 81.167969 C 95.210938 81.175781 95.207031 81.183594 95.199219 81.195312 L 92.980469 84.980469 C 92.976562 84.984375 92.972656 84.992188 92.972656 85 C 92.171875 86.675781 91.375 88.351562 90.582031 90.027344 C 90.5625 89.980469 90.542969 89.929688 90.523438 89.882812 C 90.476562 90.257812 90.320312 90.585938 90.152344 90.914062 C 89.949219 91.304688 89.707031 91.667969 89.5 92.054688 C 89.230469 92.5625 88.9375 93.058594 88.679688 93.574219 C 87.980469 94.972656 87.277344 96.421875 86.804688 97.953125 C 86.492188 98.976562 86.234375 100.109375 86.421875 101.191406 C 86.695312 102.769531 87.835938 104.164062 88.605469 105.507812 C 89.660156 107.339844 90.363281 109.296875 91.253906 111.210938 C 91.671875 112.109375 92.164062 112.84375 92.519531 113.777344 C 93.03125 115.136719 93.664062 116.570312 93.632812 118.066406 C 93.613281 119.03125 93.371094 119.675781 92.855469 120.441406 C 92.851562 120.546875 92.851562 120.628906 92.84375 120.734375 C 93.371094 121.679688 93.902344 122.59375 94.53125 123.53125 C 94.644531 123.703125 94.539062 124.242188 94.472656 124.398438 C 94.296875 124.804688 94.65625 123.679688 94.910156 122.882812 C 94.917969 122.863281 94.921875 122.84375 94.929688 122.824219 C 95.183594 122.011719 95.292969 121.15625 95.527344 120.351562 C 96.144531 118.214844 96.429688 116.316406 95.574219 114.164062 C 95.238281 113.332031 94.632812 112.683594 94.140625 111.957031 C 93.269531 110.679688 92.496094 109.3125 91.695312 107.984375 C 91.121094 107.023438 90.542969 106.0625 89.964844 105.101562 C 89.960938 105.09375 89.957031 105.085938 89.953125 105.078125 C 89.953125 105.078125 88.886719 103.023438 88.882812 103.023438 C 88.515625 102.308594 88.199219 101.488281 88.125 100.648438 C 88.046875 99.765625 88.320312 98.996094 88.582031 98.1875 C 89.28125 96.015625 90.078125 93.816406 91.066406 91.773438 C 92.085938 89.667969 93.277344 87.527344 94.507812 85.554688 C 94.507812 85.550781 98.265625 79.820312 98.417969 79.589844 C 98.421875 79.585938 98.425781 79.578125 98.425781 79.574219 C 100.441406 76.941406 103.832031 72.617188 106.34375 70.953125 C 106.828125 70.632812 109.066406 69.410156 109.683594 69.0625 C 109.691406 69.0625 109.695312 69.058594 109.699219 69.054688 C 111.722656 68.082031 114.066406 67.265625 116.289062 67.09375 C 118.070312 66.960938 119.84375 67.460938 121.1875 68.210938 C 121.199219 68.21875 121.210938 68.226562 121.222656 68.234375 C 121.3125 68.148438 121.402344 68.0625 121.492188 67.976562 C 121.582031 67.894531 121.714844 67.890625 121.804688 67.972656 C 122.140625 68.257812 122.917969 68.921875 123.222656 69.1875 C 123.296875 69.25 123.398438 69.261719 123.484375 69.214844 C 123.5625 69.175781 123.648438 69.136719 123.761719 69.101562 C 124.179688 68.964844 124.058594 68.527344 124.054688 68.515625 "/>
<path fill-rule="nonzero" fill="rgb(56.863403%, 56.079102%, 55.686951%)" fill-opacity="1" d="M 107.101562 55.628906 C 105.925781 57.417969 104.21875 58.933594 102.671875 60.035156 C 101.828125 60.640625 101.09375 61.296875 100.164062 61.667969 C 98.308594 62.402344 96.335938 62.800781 94.363281 62.644531 C 92.28125 62.480469 89.957031 61.714844 88.09375 60.640625 C 85.15625 58.941406 82.039062 55.757812 81.179688 52.175781 C 80.820312 50.664062 81.320312 48.933594 82.445312 47.910156 C 82.449219 47.90625 88.074219 42.773438 88.074219 42.773438 C 89.242188 41.710938 90.414062 40.65625 91.585938 39.597656 C 92.242188 39 92.945312 38.425781 93.574219 37.792969 C 94.007812 37.359375 94.40625 36.890625 94.800781 36.417969 C 95.195312 36.890625 95.59375 37.359375 96.027344 37.792969 C 96.65625 38.425781 97.359375 39 98.019531 39.597656 C 99.1875 40.65625 100.359375 41.710938 101.523438 42.773438 C 102.792969 43.929688 104.058594 45.085938 105.324219 46.238281 C 107.101562 47.859375 108.878906 49.363281 108.484375 52.167969 C 108.308594 53.402344 107.800781 54.566406 107.101562 55.628906 M 80.566406 47.539062 C 80.34375 47.511719 80.128906 47.398438 79.964844 47.234375 C 79.664062 44.296875 80.03125 41.300781 81.183594 38.648438 C 82.320312 36.035156 84.109375 33.695312 86.359375 32.140625 C 86.445312 32.046875 86.578125 31.960938 86.742188 31.886719 C 87.203125 31.65625 87.882812 31.492188 88.234375 31.410156 C 89.015625 31.21875 89.617188 31.34375 90.226562 31.886719 C 91.039062 32.609375 91.847656 33.335938 92.65625 34.054688 C 93.117188 34.457031 93.53125 34.90625 93.925781 35.371094 C 90.773438 38.597656 87.507812 41.675781 84.160156 44.703125 C 84.121094 44.734375 82.273438 46.40625 82.273438 46.40625 C 81.800781 46.832031 81.242188 47.621094 80.566406 47.539062 M 96.945312 34.054688 C 97.753906 33.335938 98.5625 32.609375 99.375 31.886719 C 99.984375 31.34375 100.585938 31.21875 101.367188 31.410156 C 101.84375 31.519531 102.914062 31.785156 103.25 32.144531 C 103.1875 32.078125 103.128906 32.015625 103.070312 31.945312 C 104.230469 32.652344 105.273438 33.550781 106.210938 34.605469 C 107.875 36.472656 108.957031 38.925781 109.480469 41.398438 C 109.875 43.289062 109.898438 45.261719 109.652344 47.214844 C 109.484375 47.390625 109.269531 47.511719 109.035156 47.539062 C 108.359375 47.621094 107.800781 46.832031 107.328125 46.40625 C 107.328125 46.40625 105.480469 44.734375 105.441406 44.703125 C 102.09375 41.675781 98.828125 38.597656 95.675781 35.371094 C 96.074219 34.90625 96.484375 34.457031 96.945312 34.054688 M 110.925781 43.578125 C 110.394531 37.789062 107.03125 32.027344 102.160156 29.222656 C 101.84375 29.039062 101.511719 28.875 101.152344 28.832031 C 101.117188 28.828125 101.078125 28.824219 101.039062 28.824219 C 100.691406 28.8125 100.320312 28.957031 100.117188 29.25 C 99.472656 29.441406 98.582031 30.546875 98.167969 30.949219 C 97.710938 31.386719 97.273438 31.84375 96.839844 32.3125 C 96.167969 33.039062 95.488281 33.757812 94.800781 34.472656 C 94.117188 33.757812 93.4375 33.039062 92.761719 32.3125 C 92.328125 31.84375 91.890625 31.386719 91.433594 30.949219 C 91.054688 30.582031 90.265625 29.609375 89.640625 29.308594 C 89.449219 29.101562 89.175781 28.957031 88.902344 28.925781 C 88.332031 28.867188 87.792969 29.03125 87.296875 29.339844 C 85.980469 30.171875 84.839844 31.214844 83.792969 32.363281 C 82.382812 33.914062 81.191406 35.667969 80.417969 37.589844 C 78.867188 41.433594 78.492188 46.558594 79.316406 50.660156 C 80.238281 55.273438 83.003906 58.535156 86.578125 61.078125 C 91.890625 64.851562 98.625 64.597656 103.855469 60.757812 C 105.640625 59.449219 107.175781 57.75 108.355469 55.8125 C 108.949219 54.832031 109.496094 53.773438 109.875 52.675781 C 110.261719 51.550781 110.242188 50.222656 110.453125 49.035156 C 110.761719 47.253906 111.085938 45.316406 110.925781 43.578125 "/>
<path fill-rule="nonzero" fill="rgb(56.863403%, 56.079102%, 55.686951%)" fill-opacity="1" d="M 100.007812 87.367188 C 100.007812 87.390625 100.003906 87.421875 100 87.449219 C 99.878906 88.332031 99.746094 89.203125 99.433594 90.003906 C 99.269531 90.425781 99.058594 90.835938 98.769531 91.21875 C 98.722656 91.269531 98.679688 91.328125 98.632812 91.382812 C 97.84375 92.335938 96.753906 92.96875 95.574219 93.15625 C 93.820312 93.425781 92.34375 92.621094 91.347656 91.398438 C 91.050781 91.039062 90.796875 90.640625 90.589844 90.222656 C 90.566406 90.175781 90.542969 90.125 90.523438 90.074219 C 89.839844 88.601562 89.804688 86.96875 89.878906 85.351562 L 90.066406 81.21875 C 90.066406 81.207031 90.066406 81.195312 90.070312 81.183594 C 90.207031 80.035156 90.296875 78.898438 90.367188 77.761719 C 90.40625 77.140625 90.433594 76.519531 90.464844 75.902344 C 90.511719 74.890625 90.554688 73.886719 90.613281 72.875 C 90.710938 71.15625 90.9375 69.410156 91.035156 67.671875 C 91.238281 64.167969 91.542969 60.644531 91.746094 57.144531 C 91.789062 55.816406 91.832031 54.457031 91.875 53.101562 L 92.996094 51.628906 C 93.035156 51.578125 93.066406 51.519531 93.089844 51.460938 C 93.078125 51.652344 93.066406 51.839844 93.066406 52.019531 C 93.042969 54.460938 92.753906 56.792969 92.769531 59.152344 C 92.769531 59.222656 92.761719 59.289062 92.757812 59.355469 C 92.519531 64.695312 92.503906 70.105469 91.855469 75.410156 C 91.777344 76.050781 91.742188 76.703125 91.71875 77.367188 C 91.695312 78.078125 91.6875 78.800781 91.667969 79.535156 C 91.660156 79.753906 91.652344 79.972656 91.640625 80.191406 C 91.535156 82.199219 91.324219 84.289062 91.480469 86.167969 C 91.550781 86.972656 91.5 87.238281 91.605469 87.851562 C 91.625 87.980469 91.652344 88.125 91.6875 88.289062 C 91.796875 88.789062 91.941406 89.316406 92.144531 89.8125 C 92.46875 90.609375 92.945312 91.304688 93.664062 91.574219 C 94.355469 91.839844 95.230469 91.941406 95.921875 91.648438 C 96.714844 91.3125 97.398438 90.640625 97.863281 89.855469 C 98.203125 89.285156 98.425781 88.660156 98.488281 88.058594 L 98.488281 88.054688 C 98.503906 87.933594 98.511719 87.8125 98.511719 87.691406 C 98.511719 87.6875 98.644531 85.308594 98.644531 85.308594 L 98.53125 82.875 L 98.277344 79.601562 L 98.117188 77.558594 L 98.0625 76.890625 L 97.390625 65.800781 C 97.359375 64.058594 97.253906 62.304688 97.253906 60.566406 C 97.113281 57.5625 96.90625 54.546875 96.828125 51.53125 C 96.84375 51.566406 96.863281 51.601562 96.886719 51.628906 L 97.804688 52.839844 L 98.113281 56.648438 L 98.8125 66.125 L 99.300781 73.632812 L 99.457031 75.976562 L 99.582031 77.8125 L 99.914062 82.730469 Z M 100.007812 87.367188 "/>
<path fill-rule="nonzero" fill="rgb(56.863403%, 56.079102%, 55.686951%)" fill-opacity="1" d="M 101.109375 115.402344 C 100.910156 116.003906 100.679688 116.570312 100.425781 117.152344 C 99.714844 118.535156 98.992188 119.917969 98.378906 121.355469 C 98.003906 122.246094 97.675781 123.15625 97.324219 124.058594 C 97.304688 124.117188 97.28125 124.175781 97.257812 124.230469 C 97.183594 124.421875 97.101562 124.601562 97.019531 124.753906 C 96.882812 124.996094 96.695312 125.1875 96.515625 125.390625 C 96.28125 125.664062 96.210938 125.898438 95.96875 125.523438 C 95.78125 125.238281 95.625 124.929688 95.5 124.605469 C 95.425781 124.40625 95.167969 123.855469 95.300781 123.648438 C 95.972656 122.652344 96.308594 121.839844 96.871094 120.828125 C 97.082031 120.441406 97.296875 120.054688 97.515625 119.65625 C 97.953125 118.863281 98.371094 118.0625 98.652344 117.195312 C 98.855469 116.558594 98.984375 115.890625 98.984375 115.21875 C 98.984375 115.121094 98.953125 114.5625 98.898438 114.117188 L 98.683594 113.695312 C 98.394531 113.132812 98.101562 112.574219 97.808594 112.015625 C 97.445312 111.324219 97.078125 110.636719 96.707031 109.953125 C 96.015625 108.664062 95.3125 107.375 94.617188 106.082031 C 94.601562 106.054688 94.589844 106.027344 94.574219 106 C 94.222656 105.339844 93.867188 104.675781 93.519531 104.011719 C 92.046875 101.203125 90.632812 98.367188 89.238281 95.511719 C 88.949219 94.914062 88.65625 94.316406 88.367188 93.714844 C 86.6875 90.25 85.027344 86.761719 83.332031 83.269531 C 81.972656 80.480469 80.617188 77.785156 79.242188 75.003906 C 78.769531 74.042969 78.25 73.050781 78.394531 72.195312 C 78.570312 71.132812 79.21875 70.132812 79.882812 69.160156 C 80.128906 68.804688 80.375 68.453125 80.597656 68.101562 C 80.6875 67.964844 80.769531 67.828125 80.851562 67.695312 C 82.371094 65.132812 83.890625 62.574219 85.410156 60.015625 C 86.382812 58.378906 87.351562 56.738281 88.324219 55.101562 C 89.046875 53.890625 89.765625 52.675781 90.480469 51.464844 C 90.90625 50.753906 91.441406 49.363281 92.082031 48.863281 C 92.253906 48.730469 92.496094 48.6875 92.671875 48.808594 C 93.042969 49.070312 93.0625 49.785156 93.074219 50.199219 C 93.082031 50.566406 93.09375 50.933594 93.039062 51.296875 C 92.972656 51.726562 92.769531 51.988281 92.527344 52.332031 C 92.097656 52.925781 91.636719 53.5 91.148438 54.042969 C 90.695312 54.550781 90.265625 55.179688 89.882812 55.757812 C 89.074219 56.976562 88.382812 58.214844 87.671875 59.503906 C 86.34375 61.898438 85.03125 64.304688 83.617188 66.640625 C 83.140625 67.429688 82.636719 68.203125 82.167969 69 C 81.960938 69.339844 81.765625 69.683594 81.578125 70.035156 C 81.421875 70.332031 81.273438 70.632812 81.132812 70.9375 C 80.839844 71.582031 80.433594 72.398438 80.433594 73.128906 C 80.433594 73.882812 80.828125 74.597656 81.046875 75.277344 C 81.808594 77.648438 83.277344 79.792969 84.46875 81.945312 C 85.421875 83.667969 86.082031 85.410156 86.945312 87.136719 C 86.949219 87.140625 87.929688 89.03125 89.359375 91.785156 C 89.605469 92.257812 89.863281 92.753906 90.132812 93.269531 C 91.480469 95.859375 93.085938 98.957031 94.617188 101.902344 C 94.988281 102.617188 95.359375 103.324219 95.714844 104.011719 C 96.480469 105.484375 97.203125 106.871094 97.835938 108.085938 C 98.175781 108.75 98.492188 109.355469 98.777344 109.898438 C 99.535156 111.359375 100.046875 112.34375 100.160156 112.5625 C 100.175781 112.59375 100.191406 112.625 100.203125 112.65625 C 100.472656 113.292969 101.3125 114.289062 101.128906 114.925781 C 101.164062 115.082031 101.164062 115.242188 101.109375 115.402344 "/>
<path fill-rule="nonzero" fill="rgb(56.863403%, 56.079102%, 55.686951%)" fill-opacity="1" d="M 112.582031 57.714844 C 112.59375 57.960938 112.578125 58.199219 112.488281 58.4375 C 112.152344 59.324219 111.085938 60.421875 110.4375 61.046875 C 108.953125 62.484375 107.121094 63.609375 105.519531 64.875 C 104.152344 65.953125 102.535156 66.648438 101.234375 67.8125 C 98.785156 70.003906 96.378906 72.246094 94.03125 74.5625 C 92.855469 75.71875 91.699219 76.890625 90.554688 78.082031 C 89.488281 79.191406 88.277344 80.289062 87.507812 81.667969 C 87.0625 82.46875 86.714844 83.476562 86.09375 84.144531 C 85.570312 84.703125 84.707031 85.089844 83.992188 85.242188 C 82.988281 85.460938 81.828125 85.757812 80.816406 85.578125 C 79.175781 85.289062 77.972656 83.921875 76.917969 82.550781 C 75.269531 80.402344 74.046875 77.925781 72.628906 75.59375 C 71.214844 73.261719 68.417969 70.476562 66.160156 69.101562 C 66.753906 69.207031 67.832031 68.214844 68.335938 67.785156 C 68.554688 67.597656 70.59375 69.953125 72.113281 71.84375 C 73.324219 73.347656 74.371094 75.0625 75.09375 76.308594 C 75.882812 77.667969 76.59375 79.089844 77.496094 80.371094 C 77.941406 81.007812 78.4375 81.609375 79 82.128906 C 81.078125 84.039062 84.078125 82.640625 85.902344 81.082031 C 86.195312 80.832031 86.5 80.597656 86.785156 80.328125 C 87.535156 79.601562 88.269531 78.839844 88.976562 78.058594 C 90.578125 76.285156 92.320312 74.675781 93.988281 72.960938 C 95.222656 71.695312 96.453125 70.421875 97.730469 69.203125 C 99.0625 67.9375 100.648438 66.800781 102.105469 65.699219 L 105.652344 62.65625 C 106.871094 61.570312 108.691406 60.699219 109.855469 59.457031 C 109.90625 59.402344 109.964844 59.34375 110.019531 59.28125 C 110.816406 58.113281 110.671875 56.34375 110.039062 54.953125 C 109.621094 54.042969 109.527344 53.003906 109.742188 52.019531 C 110.078125 50.460938 110.496094 48.878906 110.726562 47.355469 C 110.386719 49.613281 111.425781 52.457031 112.066406 54.644531 C 112.121094 54.84375 112.179688 55.035156 112.230469 55.230469 C 112.457031 56.066406 112.703125 56.910156 112.582031 57.714844 "/>
<path fill-rule="nonzero" fill="rgb(56.863403%, 56.079102%, 55.686951%)" fill-opacity="1" d="M 98.519531 108.542969 C 98.484375 108.476562 98.445312 108.40625 98.414062 108.339844 C 98.449219 108.40625 98.484375 108.476562 98.519531 108.542969 M 66.160156 69.101562 C 66.273438 69.136719 66.363281 69.175781 66.4375 69.214844 C 66.523438 69.257812 66.625 69.25 66.699219 69.1875 C 67.007812 68.921875 68.339844 67.894531 68.429688 67.976562 C 68.519531 68.0625 68.609375 68.148438 68.699219 68.234375 C 68.714844 68.226562 68.726562 68.21875 68.734375 68.210938 C 70.074219 67.460938 71.851562 66.960938 73.632812 67.097656 C 75.855469 67.265625 78.199219 68.082031 80.222656 69.054688 C 80.226562 69.058594 80.234375 69.0625 80.238281 69.0625 C 80.855469 69.410156 83.09375 70.628906 83.578125 70.953125 C 86.089844 72.617188 89.480469 76.941406 91.492188 79.574219 C 91.496094 79.582031 91.5 79.585938 91.503906 79.589844 C 91.65625 79.820312 95.414062 85.550781 95.414062 85.550781 C 96.644531 87.523438 97.832031 89.667969 98.855469 91.773438 C 99.84375 93.816406 100.640625 96.015625 101.339844 98.1875 C 101.601562 98.996094 101.875 99.765625 101.796875 100.648438 C 101.722656 101.488281 101.410156 102.308594 101.039062 103.023438 L 99.96875 105.078125 C 99.964844 105.085938 99.960938 105.09375 99.957031 105.101562 C 99.378906 106.0625 98.804688 107.023438 98.222656 107.984375 C 97.425781 109.3125 96.652344 110.679688 95.78125 111.957031 C 95.289062 112.683594 94.683594 113.332031 94.351562 114.164062 C 93.492188 116.316406 93.78125 118.214844 94.394531 120.351562 C 94.628906 121.15625 94.742188 122.011719 94.992188 122.820312 C 95 122.84375 95.003906 122.863281 95.011719 122.882812 C 95.265625 123.679688 95.625 124.804688 95.449219 124.394531 C 95.382812 124.242188 95.277344 123.707031 95.394531 123.53125 C 96.019531 122.59375 96.550781 121.679688 97.078125 120.734375 C 97.074219 120.628906 97.070312 120.546875 97.066406 120.441406 C 96.550781 119.675781 96.308594 119.03125 96.289062 118.066406 C 96.257812 116.570312 96.890625 115.132812 97.40625 113.777344 C 97.757812 112.84375 98.25 112.109375 98.671875 111.210938 C 99.558594 109.296875 100.261719 107.339844 101.316406 105.507812 C 102.085938 104.164062 103.226562 102.773438 103.5 101.191406 C 103.6875 100.109375 103.429688 98.976562 103.117188 97.953125 C 102.644531 96.421875 101.941406 94.972656 101.242188 93.574219 C 100.988281 93.058594 100.691406 92.558594 100.421875 92.050781 C 100.214844 91.667969 99.972656 91.304688 99.773438 90.914062 C 99.601562 90.585938 99.445312 90.257812 99.398438 89.886719 C 99.378906 89.929688 99.359375 89.980469 99.339844 90.027344 C 98.542969 88.351562 97.75 86.675781 96.953125 85 C 96.949219 84.992188 96.945312 84.984375 96.941406 84.980469 L 94.722656 81.195312 C 94.71875 81.183594 94.710938 81.175781 94.703125 81.167969 L 91.816406 77.359375 C 91.382812 76.820312 90.925781 76.304688 90.457031 75.800781 C 89.023438 74.253906 87.488281 72.796875 85.890625 71.441406 C 85.105469 70.769531 84.296875 70.121094 83.460938 69.519531 C 82.925781 69.136719 82.425781 68.703125 81.847656 68.402344 C 80.808594 67.859375 79.707031 67.351562 78.644531 66.925781 C 77.578125 66.496094 75.066406 65.75 72.484375 65.660156 C 69.453125 65.554688 66.351562 66.289062 65.867188 68.515625 C 65.867188 68.527344 65.742188 68.964844 66.160156 69.101562 "/>
<path fill-rule="nonzero" fill="rgb(56.863403%, 56.079102%, 55.686951%)" fill-opacity="1" d="M 77.316406 57.714844 C 77.308594 57.960938 77.320312 58.199219 77.410156 58.4375 C 77.746094 59.324219 78.8125 60.421875 79.464844 61.046875 C 80.949219 62.484375 82.777344 63.609375 84.382812 64.875 C 85.746094 65.953125 87.363281 66.648438 88.667969 67.8125 C 91.117188 70.003906 93.519531 72.246094 95.871094 74.5625 C 97.042969 75.71875 98.203125 76.890625 99.347656 78.082031 C 100.414062 79.191406 101.621094 80.289062 102.390625 81.667969 C 102.839844 82.46875 103.183594 83.476562 103.808594 84.144531 C 104.328125 84.703125 105.195312 85.089844 105.910156 85.242188 C 106.914062 85.460938 108.070312 85.757812 109.085938 85.578125 C 110.726562 85.289062 111.929688 83.921875 112.980469 82.550781 C 114.632812 80.402344 115.855469 77.925781 117.269531 75.59375 C 118.683594 73.261719 121.480469 70.476562 123.738281 69.101562 C 123.144531 69.207031 122.070312 68.214844 121.566406 67.785156 C 121.34375 67.597656 119.308594 69.953125 117.785156 71.84375 C 116.574219 73.347656 115.527344 75.0625 114.808594 76.308594 C 114.015625 77.667969 113.304688 79.089844 112.40625 80.371094 C 111.957031 81.007812 111.464844 81.609375 110.898438 82.128906 C 108.820312 84.039062 105.824219 82.640625 103.996094 81.082031 C 103.703125 80.832031 103.398438 80.597656 103.117188 80.328125 C 102.363281 79.601562 101.628906 78.839844 100.921875 78.058594 C 99.320312 76.285156 97.578125 74.675781 95.914062 72.960938 C 94.679688 71.695312 93.445312 70.421875 92.167969 69.203125 C 90.835938 67.9375 89.25 66.800781 87.796875 65.699219 L 84.25 62.65625 C 83.027344 61.570312 81.210938 60.699219 80.046875 59.457031 C 79.992188 59.402344 79.9375 59.34375 79.878906 59.28125 C 79.082031 58.113281 79.226562 56.34375 79.863281 54.953125 C 80.277344 54.042969 80.371094 53.003906 80.160156 52.019531 C 79.820312 50.460938 79.402344 48.878906 79.171875 47.355469 C 79.511719 49.613281 78.476562 52.457031 77.835938 54.644531 C 77.777344 54.84375 77.722656 55.035156 77.667969 55.230469 C 77.445312 56.066406 77.195312 56.910156 77.316406 57.714844 "/>
<path fill-rule="nonzero" fill="rgb(56.863403%, 56.079102%, 55.686951%)" fill-opacity="1" d="M 88.769531 115.402344 C 88.972656 116.003906 89.199219 116.570312 89.453125 117.152344 C 90.164062 118.535156 90.886719 119.917969 91.5 121.355469 C 91.875 122.246094 92.199219 123.15625 92.554688 124.058594 C 92.574219 124.117188 92.597656 124.175781 92.621094 124.230469 C 92.695312 124.421875 92.777344 124.601562 92.859375 124.753906 C 92.996094 124.996094 93.183594 125.1875 93.359375 125.390625 C 93.597656 125.664062 93.667969 125.898438 93.910156 125.523438 C 94.101562 125.238281 94.253906 124.929688 94.378906 124.605469 C 94.453125 124.40625 94.710938 123.855469 94.574219 123.648438 C 93.90625 122.652344 93.570312 121.839844 93.007812 120.828125 C 92.796875 120.441406 92.582031 120.054688 92.363281 119.65625 C 91.925781 118.863281 91.507812 118.0625 91.226562 117.195312 C 91.023438 116.558594 90.894531 115.890625 90.894531 115.21875 C 90.894531 115.121094 90.925781 114.5625 90.980469 114.117188 L 91.195312 113.695312 C 91.484375 113.132812 91.777344 112.574219 92.070312 112.015625 C 92.433594 111.324219 92.800781 110.636719 93.171875 109.953125 C 93.863281 108.664062 94.566406 107.375 95.261719 106.082031 C 95.277344 106.054688 95.289062 106.027344 95.304688 106 C 95.65625 105.339844 96.011719 104.675781 96.359375 104.011719 C 97.832031 101.203125 99.246094 98.367188 100.640625 95.511719 C 100.929688 94.914062 101.222656 94.316406 101.515625 93.714844 C 103.195312 90.25 104.851562 86.761719 106.546875 83.269531 C 107.902344 80.480469 109.261719 77.785156 110.632812 75.003906 C 111.109375 74.042969 111.628906 73.050781 111.484375 72.195312 C 111.308594 71.132812 110.660156 70.132812 109.996094 69.160156 C 109.75 68.804688 109.503906 68.453125 109.28125 68.101562 C 109.191406 67.964844 109.109375 67.828125 109.027344 67.695312 C 107.507812 65.132812 105.988281 62.574219 104.46875 60.015625 C 103.496094 58.378906 102.527344 56.738281 101.550781 55.101562 C 100.832031 53.890625 100.113281 52.675781 99.394531 51.464844 C 98.972656 50.753906 98.4375 49.363281 97.796875 48.863281 C 97.625 48.730469 97.382812 48.6875 97.207031 48.808594 C 96.835938 49.070312 96.816406 49.785156 96.804688 50.199219 C 96.796875 50.566406 96.785156 50.933594 96.839844 51.296875 C 96.90625 51.726562 97.105469 51.988281 97.351562 52.332031 C 97.78125 52.925781 98.242188 53.5 98.730469 54.042969 C 99.183594 54.550781 99.613281 55.179688 99.996094 55.757812 C 100.804688 56.976562 101.496094 58.214844 102.207031 59.503906 C 103.535156 61.898438 104.847656 64.304688 106.261719 66.640625 C 106.738281 67.429688 107.242188 68.203125 107.714844 69 C 107.917969 69.339844 108.117188 69.683594 108.300781 70.035156 C 108.457031 70.332031 108.609375 70.632812 108.746094 70.9375 C 109.039062 71.582031 109.445312 72.398438 109.445312 73.128906 C 109.445312 73.882812 109.046875 74.597656 108.832031 75.277344 C 108.070312 77.648438 106.601562 79.792969 105.410156 81.945312 C 104.457031 83.667969 103.796875 85.410156 102.933594 87.136719 C 102.933594 87.140625 101.949219 89.03125 100.515625 91.785156 C 100.273438 92.257812 100.015625 92.753906 99.746094 93.269531 C 98.398438 95.859375 96.792969 98.957031 95.261719 101.902344 C 94.886719 102.617188 94.523438 103.324219 94.164062 104.011719 C 93.398438 105.484375 92.675781 106.871094 92.046875 108.085938 C 91.699219 108.75 91.382812 109.355469 91.101562 109.898438 C 90.34375 111.359375 89.832031 112.34375 89.71875 112.5625 C 89.703125 112.59375 89.6875 112.625 89.675781 112.65625 C 89.40625 113.292969 88.566406 114.289062 88.75 114.925781 C 88.714844 115.082031 88.714844 115.242188 88.769531 115.402344 "/>
<path fill-rule="nonzero" fill="rgb(3.137207%, 4.31366%, 5.882263%)" fill-opacity="1" d="M 53.46875 89.195312 C 51.675781 91.921875 49.140625 93.304688 45.9375 93.304688 C 45.203125 93.304688 44.363281 93.242188 43.4375 93.117188 C 42.496094 92.996094 41.585938 92.804688 40.738281 92.558594 L 40.542969 92.503906 L 40.542969 60.925781 L 40.769531 60.886719 C 41.121094 60.820312 41.628906 60.757812 42.277344 60.699219 C 42.945312 60.636719 43.6875 60.605469 44.484375 60.605469 C 46.527344 60.605469 48.308594 60.855469 49.789062 61.351562 C 51.289062 61.859375 52.527344 62.769531 53.464844 64.0625 C 54.386719 65.339844 55.074219 67.054688 55.503906 69.160156 C 55.925781 71.25 56.140625 73.886719 56.140625 77 C 56.140625 82.402344 55.242188 86.507812 53.46875 89.195312 M 61.621094 69.957031 C 60.792969 67.863281 59.632812 66.046875 58.167969 64.550781 C 56.703125 63.058594 54.949219 61.894531 52.949219 61.085938 C 50.949219 60.28125 48.738281 59.871094 46.378906 59.871094 C 45.796875 59.871094 45.21875 59.886719 44.65625 59.914062 C 44.101562 59.945312 43.511719 59.960938 42.902344 59.960938 C 42.347656 60.023438 41.746094 60.070312 41.144531 60.101562 C 40.570312 60.128906 39.972656 60.144531 39.363281 60.144531 L 27.746094 60.144531 L 27.746094 60.882812 L 34.765625 60.882812 L 34.765625 124.082031 L 27.746094 124.082031 L 27.746094 124.816406 L 47.5625 124.816406 L 47.5625 124.082031 L 40.542969 124.082031 L 40.542969 93.226562 L 40.882812 93.316406 C 41.601562 93.496094 42.421875 93.664062 43.328125 93.8125 C 44.230469 93.964844 44.980469 94.039062 45.558594 94.039062 C 47.835938 94.039062 50.046875 93.644531 52.132812 92.863281 C 54.21875 92.089844 56.070312 90.96875 57.640625 89.53125 C 59.210938 88.097656 60.484375 86.308594 61.433594 84.214844 C 62.382812 82.121094 62.863281 79.695312 62.863281 77 C 62.863281 74.421875 62.445312 72.054688 61.621094 69.957031 "/>
<path fill-rule="nonzero" fill="rgb(3.137207%, 4.31366%, 5.882263%)" fill-opacity="1" d="M 190.371094 89.730469 L 184.28125 89.730469 L 184.28125 60.9375 L 184.496094 60.886719 C 185.050781 60.765625 185.738281 60.683594 186.535156 60.652344 C 187.320312 60.621094 188.09375 60.605469 188.855469 60.605469 C 189.96875 60.605469 191.113281 60.765625 192.246094 61.074219 C 193.410156 61.390625 194.472656 62.066406 195.410156 63.074219 C 196.34375 64.078125 197.109375 65.582031 197.6875 67.535156 C 198.261719 69.476562 198.550781 72.074219 198.550781 75.261719 C 198.550781 78.074219 198.359375 80.4375 197.976562 82.277344 C 197.59375 84.136719 197.035156 85.628906 196.324219 86.722656 C 195.605469 87.832031 194.722656 88.621094 193.707031 89.066406 C 192.707031 89.507812 191.585938 89.730469 190.371094 89.730469 M 213.988281 123.933594 C 214.203125 123.71875 214.398438 123.511719 214.574219 123.3125 L 214.308594 122.839844 C 213.882812 123.375 213.40625 123.78125 212.886719 124.050781 C 212.257812 124.375 211.640625 124.539062 211.050781 124.539062 C 209.714844 124.539062 208.734375 123.835938 208.144531 122.449219 C 207.589844 121.152344 207.179688 119.683594 206.925781 118.078125 C 206.753906 117.039062 206.636719 115.730469 206.574219 114.199219 C 206.507812 112.675781 206.445312 111.085938 206.382812 109.4375 C 206.320312 107.816406 206.234375 106.199219 206.128906 104.636719 C 206.027344 103.097656 205.847656 101.707031 205.597656 100.503906 C 205.1875 98.480469 204.480469 96.804688 203.5 95.53125 C 202.511719 94.25 201.417969 93.210938 200.246094 92.433594 C 199.070312 91.660156 197.90625 91.101562 196.777344 90.773438 C 195.636719 90.445312 194.71875 90.214844 194.054688 90.09375 L 193.832031 90.054688 L 193.832031 89.410156 L 194.058594 89.371094 C 196.441406 88.957031 198.375 88.128906 199.808594 86.914062 C 201.25 85.691406 202.363281 84.332031 203.125 82.875 C 203.886719 81.414062 204.390625 79.960938 204.617188 78.558594 C 204.84375 77.140625 204.960938 75.972656 204.960938 75.078125 C 204.960938 73.28125 204.65625 71.335938 204.054688 69.292969 C 203.457031 67.265625 202.421875 65.421875 200.984375 63.808594 C 199.382812 61.96875 197.644531 60.84375 195.816406 60.460938 C 193.949219 60.070312 191.753906 59.871094 189.296875 59.871094 C 188.796875 59.871094 188.296875 59.886719 187.796875 59.914062 C 187.304688 59.945312 186.789062 59.960938 186.261719 59.960938 C 185.796875 60.019531 185.277344 60.066406 184.761719 60.097656 C 184.269531 60.128906 183.753906 60.144531 183.226562 60.144531 L 171.484375 60.144531 L 171.484375 60.878906 L 178.503906 60.878906 L 178.503906 124.082031 L 171.484375 124.082031 L 171.484375 124.816406 L 191.300781 124.816406 L 191.300781 124.082031 L 184.28125 124.082031 L 184.28125 90.464844 L 190.878906 90.464844 C 191.601562 90.464844 192.46875 90.546875 193.449219 90.699219 C 194.46875 90.859375 195.460938 91.359375 196.402344 92.183594 C 197.335938 93 198.160156 94.300781 198.847656 96.042969 C 199.53125 97.773438 199.960938 100.207031 200.132812 103.273438 L 200.574219 111.609375 C 200.699219 113.90625 200.921875 115.945312 201.234375 117.667969 C 201.542969 119.367188 202.03125 120.820312 202.691406 121.976562 C 203.335938 123.121094 204.203125 123.992188 205.269531 124.574219 C 206.34375 125.160156 207.710938 125.457031 209.34375 125.457031 C 210.199219 125.457031 210.929688 125.382812 211.523438 125.234375 C 212.105469 125.089844 212.605469 124.898438 213 124.667969 C 213.398438 124.441406 213.726562 124.195312 213.988281 123.933594 "/>
<path fill-rule="nonzero" fill="rgb(3.137207%, 4.31366%, 5.882263%)" fill-opacity="1" d="M 237.148438 60.882812 L 237.148438 60.144531 L 217.332031 60.144531 L 217.332031 60.882812 L 224.351562 60.882812 L 224.351562 124.082031 L 217.332031 124.082031 L 217.332031 124.816406 L 237.148438 124.816406 L 237.148438 124.082031 L 230.128906 124.082031 L 230.128906 60.882812 Z M 237.148438 60.882812 "/>
<path fill-rule="nonzero" fill="rgb(3.137207%, 4.31366%, 5.882263%)" fill-opacity="1" d="M 274.1875 63.058594 C 275.285156 64.054688 276.347656 65.640625 277.347656 67.769531 C 278.324219 69.847656 279.179688 72.734375 279.886719 76.359375 L 280.085938 76.359375 L 280.085938 60.144531 L 242.183594 60.144531 L 242.183594 76.359375 L 242.378906 76.359375 C 243.089844 72.734375 243.941406 69.84375 244.917969 67.769531 C 245.917969 65.644531 246.984375 64.058594 248.082031 63.058594 C 249.1875 62.054688 250.308594 61.429688 251.402344 61.207031 C 252.472656 60.992188 253.449219 60.882812 254.304688 60.882812 L 258.246094 60.882812 L 258.246094 124.082031 L 251.226562 124.082031 L 251.226562 124.816406 L 271.042969 124.816406 L 271.042969 124.082031 L 264.023438 124.082031 L 264.023438 60.882812 L 267.964844 60.882812 C 268.820312 60.882812 269.792969 60.992188 270.863281 61.207031 C 271.960938 61.429688 273.082031 62.054688 274.1875 63.058594 "/>
<path fill-rule="nonzero" fill="rgb(3.137207%, 4.31366%, 5.882263%)" fill-opacity="1" d="M 327.132812 60.144531 L 314.148438 60.144531 L 314.148438 60.878906 L 320.65625 60.878906 L 308.316406 94.164062 L 295.261719 60.878906 L 301.710938 60.878906 L 301.710938 60.144531 L 282.910156 60.144531 L 282.910156 60.878906 L 288.574219 60.878906 L 302.890625 97.519531 L 302.890625 124.082031 L 295.871094 124.082031 L 295.871094 124.816406 L 315.6875 124.816406 L 315.6875 124.082031 L 308.667969 124.082031 L 308.683594 94.492188 L 321.082031 60.878906 L 327.132812 60.878906 Z M 327.132812 60.144531 "/>
<path fill-rule="nonzero" fill="rgb(3.137207%, 4.31366%, 5.882263%)" fill-opacity="1" d="M 152.386719 60.125 L 152.386719 60.84375 L 158.996094 60.84375 L 158.996094 102.847656 C 158.996094 105 158.9375 106.8125 158.8125 108.277344 C 158.6875 109.742188 158.511719 111 158.285156 112.046875 C 158.058594 113.09375 157.789062 114.007812 157.480469 114.785156 C 157.167969 115.5625 156.808594 116.339844 156.394531 117.117188 C 155.113281 119.628906 153.585938 121.382812 151.8125 122.367188 C 150.035156 123.355469 147.988281 123.847656 145.675781 123.847656 C 144.023438 123.847656 142.558594 123.519531 141.277344 122.863281 C 139.996094 122.203125 138.921875 121.113281 138.054688 119.585938 C 137.1875 118.058594 136.535156 116.054688 136.101562 113.574219 C 135.667969 111.089844 135.453125 108.054688 135.453125 104.464844 L 135.453125 60.84375 L 142.0625 60.84375 L 142.0625 60.125 L 122.644531 60.125 L 122.644531 60.84375 L 129.257812 60.84375 L 129.257812 103.566406 C 129.257812 110.867188 130.566406 116.28125 133.191406 119.8125 C 135.8125 123.339844 139.605469 125.105469 144.5625 125.105469 C 147.824219 125.105469 150.445312 124.445312 152.429688 123.128906 C 154.414062 121.816406 155.960938 120.078125 157.078125 117.925781 C 158.234375 115.710938 158.996094 113.574219 159.371094 111.507812 C 159.742188 109.445312 159.925781 107.15625 159.925781 104.644531 L 159.925781 60.84375 L 166.539062 60.84375 L 166.539062 60.125 Z M 152.386719 60.125 "/>
<path fill-rule="nonzero" fill="rgb(10.195923%, 9.01947%, 10.588074%)" fill-opacity="1" stroke-width="1" stroke-linecap="butt" stroke-linejoin="miter" stroke="rgb(10.195923%, 9.01947%, 10.588074%)" stroke-opacity="1" stroke-miterlimit="10" d="M -0.00157294 -0.00102379 L 301.333217 -0.333243 " transform="matrix(0.999433, 0, 0, -0.999433, 26.185166, 129.444289)"/>
<path fill="none" stroke-width="1" stroke-linecap="butt" stroke-linejoin="miter" stroke="rgb(10.195923%, 9.01947%, 10.588074%)" stroke-opacity="1" stroke-miterlimit="10" d="M -0.00122073 -0.00138031 L -0.00122073 0.334748 " transform="matrix(0.999433, 0, 0, -0.999433, 63.497314, 40.494714)"/>
<path fill-rule="nonzero" fill="rgb(10.195923%, 9.01947%, 10.588074%)" fill-opacity="1" d="M 30.324219 139 L 28.984375 139 L 28.984375 142.496094 L 30.402344 142.496094 C 30.929688 142.496094 31.332031 142.34375 31.617188 142.039062 C 31.902344 141.730469 32.046875 141.292969 32.046875 140.722656 C 32.046875 139.574219 31.472656 139 30.324219 139 M 27.683594 148.769531 L 27.683594 137.578125 L 30.550781 137.578125 C 31.414062 137.578125 32.101562 137.867188 32.613281 138.441406 C 33.128906 139.019531 33.382812 139.792969 33.382812 140.761719 C 33.382812 141.414062 33.253906 141.988281 32.988281 142.488281 C 32.726562 142.992188 32.367188 143.355469 31.910156 143.582031 C 31.453125 143.808594 30.796875 143.921875 29.941406 143.921875 L 28.984375 143.921875 L 28.984375 148.769531 Z M 27.683594 148.769531 "/>
<path fill-rule="nonzero" fill="rgb(10.195923%, 9.01947%, 10.588074%)" fill-opacity="1" d="M 38.484375 137.59375 L 43.605469 137.59375 L 43.605469 139.019531 L 39.777344 139.019531 L 39.777344 142.425781 L 43.476562 142.425781 L 43.476562 143.859375 L 39.777344 143.859375 L 39.777344 147.328125 L 43.730469 147.328125 L 43.730469 148.753906 L 38.484375 148.753906 Z M 38.484375 137.59375 "/>
<path fill-rule="nonzero" fill="rgb(10.195923%, 9.01947%, 10.588074%)" fill-opacity="1" d="M 50.800781 138.953125 L 50.414062 138.953125 L 50.414062 142.480469 L 50.90625 142.480469 C 51.5625 142.480469 52.011719 142.410156 52.253906 142.273438 C 52.5 142.136719 52.6875 141.925781 52.824219 141.644531 C 52.960938 141.367188 53.027344 141.046875 53.027344 140.691406 C 53.027344 140.339844 52.953125 140.019531 52.800781 139.734375 C 52.652344 139.449219 52.4375 139.246094 52.164062 139.128906 C 51.890625 139.011719 51.4375 138.953125 50.800781 138.953125 M 49.121094 148.769531 L 49.121094 137.59375 L 51.386719 137.59375 C 52.300781 137.59375 53.023438 137.875 53.5625 138.433594 C 54.097656 138.992188 54.367188 139.75 54.367188 140.707031 C 54.367188 141.355469 54.234375 141.917969 53.972656 142.394531 C 53.707031 142.867188 53.332031 143.222656 52.839844 143.457031 C 53.128906 143.691406 53.410156 144.011719 53.6875 144.417969 C 53.964844 144.824219 54.351562 145.53125 54.851562 146.539062 C 55.167969 147.171875 55.417969 147.648438 55.609375 147.96875 L 56.085938 148.769531 L 54.546875 148.769531 L 54.152344 148.03125 C 54.140625 148.007812 54.113281 147.960938 54.078125 147.898438 L 53.824219 147.457031 L 53.425781 146.640625 L 52.992188 145.769531 C 52.722656 145.308594 52.480469 144.945312 52.257812 144.671875 C 52.035156 144.402344 51.832031 144.203125 51.65625 144.085938 C 51.476562 143.964844 51.175781 143.90625 50.75 143.90625 L 50.414062 143.90625 L 50.414062 148.769531 Z M 49.121094 148.769531 "/>
<path fill-rule="nonzero" fill="rgb(10.195923%, 9.01947%, 10.588074%)" fill-opacity="1" d="M 63.296875 144.085938 L 62.3125 143.347656 C 61.695312 142.882812 61.257812 142.425781 60.996094 141.972656 C 60.734375 141.523438 60.605469 141.003906 60.605469 140.417969 C 60.605469 139.539062 60.851562 138.824219 61.34375 138.273438 C 61.839844 137.726562 62.480469 137.449219 63.269531 137.449219 C 64.023438 137.449219 64.714844 137.710938 65.347656 138.238281 L 65.347656 140.050781 C 64.695312 139.277344 63.996094 138.890625 63.246094 138.890625 C 62.820312 138.890625 62.476562 139.011719 62.203125 139.253906 C 61.929688 139.492188 61.796875 139.804688 61.796875 140.179688 C 61.796875 140.515625 61.894531 140.828125 62.097656 141.121094 C 62.296875 141.414062 62.617188 141.71875 63.0625 142.042969 L 64.050781 142.765625 C 65.152344 143.578125 65.703125 144.613281 65.703125 145.875 C 65.703125 146.769531 65.460938 147.5 64.972656 148.058594 C 64.488281 148.617188 63.859375 148.898438 63.082031 148.898438 C 62.191406 148.898438 61.378906 148.558594 60.644531 147.878906 L 60.644531 145.847656 C 61.34375 146.941406 62.152344 147.488281 63.070312 147.488281 C 63.476562 147.488281 63.8125 147.351562 64.082031 147.070312 C 64.351562 146.792969 64.488281 146.441406 64.488281 146.023438 C 64.488281 145.34375 64.089844 144.699219 63.296875 144.085938 "/>
<path fill-rule="nonzero" fill="rgb(10.195923%, 9.01947%, 10.588074%)" fill-opacity="1" d="M 75.585938 138.953125 C 74.550781 138.953125 73.703125 139.355469 73.035156 140.152344 C 72.371094 140.953125 72.039062 141.976562 72.039062 143.21875 C 72.039062 144.421875 72.371094 145.425781 73.039062 146.226562 C 73.707031 147.023438 74.542969 147.425781 75.546875 147.425781 C 76.554688 147.425781 77.398438 147.015625 78.070312 146.203125 C 78.746094 145.386719 79.082031 144.371094 79.082031 143.152344 C 79.082031 141.96875 78.746094 140.972656 78.070312 140.167969 C 77.398438 139.359375 76.566406 138.953125 75.585938 138.953125 M 75.535156 137.433594 C 76.929688 137.433594 78.09375 137.980469 79.023438 139.074219 C 79.949219 140.167969 80.414062 141.539062 80.414062 143.183594 C 80.414062 144.832031 79.945312 146.199219 79.007812 147.277344 C 78.070312 148.359375 76.890625 148.898438 75.464844 148.898438 C 74.101562 148.898438 72.964844 148.359375 72.058594 147.277344 C 71.152344 146.199219 70.699219 144.84375 70.699219 143.21875 C 70.699219 141.546875 71.15625 140.167969 72.070312 139.074219 C 72.984375 137.980469 74.136719 137.433594 75.535156 137.433594 "/>
<path fill-rule="nonzero" fill="rgb(10.195923%, 9.01947%, 10.588074%)" fill-opacity="1" d="M 93.160156 137.59375 L 94.390625 137.59375 L 94.390625 148.769531 L 93.277344 148.769531 L 87.234375 140.164062 L 87.234375 148.769531 L 86.019531 148.769531 L 86.019531 137.59375 L 87.066406 137.59375 L 93.160156 146.273438 Z M 93.160156 137.59375 "/>
<path fill-rule="nonzero" fill="rgb(10.195923%, 9.01947%, 10.588074%)" fill-opacity="1" d="M 105.082031 144.035156 L 103.625 139.984375 L 102.273438 144.035156 Z M 103.183594 137.53125 L 104.09375 137.53125 L 108.144531 148.769531 L 106.820312 148.769531 L 105.617188 145.457031 L 101.757812 145.457031 L 100.628906 148.769531 L 99.300781 148.769531 Z M 103.183594 137.53125 "/>
<path fill-rule="nonzero" fill="rgb(10.195923%, 9.01947%, 10.588074%)" fill-opacity="1" d="M 113.109375 137.59375 L 114.402344 137.59375 L 114.402344 147.3125 L 118.472656 147.3125 L 118.472656 148.769531 L 113.109375 148.769531 Z M 113.109375 137.59375 "/>
<path fill-rule="nonzero" fill="rgb(10.195923%, 9.01947%, 10.588074%)" fill-opacity="1" d="M 141.085938 137.59375 L 142.378906 137.59375 L 138.722656 148.816406 L 138.441406 148.816406 L 135.484375 139.730469 L 132.5 148.816406 L 132.222656 148.816406 L 128.578125 137.59375 L 129.882812 137.59375 L 132.375 145.296875 L 134.878906 137.59375 L 136.101562 137.59375 L 138.621094 145.296875 Z M 141.085938 137.59375 "/>
<path fill-rule="nonzero" fill="rgb(10.195923%, 9.01947%, 10.588074%)" fill-opacity="1" d="M 151.078125 144.035156 L 149.621094 139.984375 L 148.269531 144.035156 Z M 149.179688 137.53125 L 150.089844 137.53125 L 154.140625 148.769531 L 152.816406 148.769531 L 151.613281 145.457031 L 147.753906 145.457031 L 146.625 148.769531 L 145.296875 148.769531 Z M 149.179688 137.53125 "/>
<path fill-rule="nonzero" fill="rgb(10.195923%, 9.01947%, 10.588074%)" fill-opacity="1" d="M 160.824219 138.953125 L 160.4375 138.953125 L 160.4375 142.480469 L 160.929688 142.480469 C 161.582031 142.480469 162.03125 142.410156 162.277344 142.273438 C 162.519531 142.136719 162.710938 141.925781 162.84375 141.644531 C 162.980469 141.367188 163.050781 141.046875 163.050781 140.691406 C 163.050781 140.339844 162.972656 140.019531 162.824219 139.734375 C 162.671875 139.449219 162.460938 139.246094 162.1875 139.128906 C 161.910156 139.011719 161.457031 138.953125 160.824219 138.953125 M 159.144531 148.769531 L 159.144531 137.59375 L 161.40625 137.59375 C 162.320312 137.59375 163.046875 137.875 163.585938 138.433594 C 164.121094 138.992188 164.386719 139.75 164.386719 140.707031 C 164.386719 141.355469 164.257812 141.917969 163.992188 142.394531 C 163.730469 142.867188 163.355469 143.222656 162.863281 143.457031 C 163.152344 143.691406 163.433594 144.011719 163.710938 144.417969 C 163.984375 144.824219 164.375 145.53125 164.875 146.539062 C 165.1875 147.171875 165.441406 147.648438 165.632812 147.96875 L 166.109375 148.769531 L 164.570312 148.769531 L 164.175781 148.03125 C 164.164062 148.007812 164.136719 147.960938 164.097656 147.898438 L 163.847656 147.457031 L 163.445312 146.640625 L 163.011719 145.769531 C 162.746094 145.308594 162.5 144.945312 162.277344 144.671875 C 162.058594 144.402344 161.855469 144.203125 161.675781 144.085938 C 161.496094 143.964844 161.195312 143.90625 160.773438 143.90625 L 160.4375 143.90625 L 160.4375 148.769531 Z M 159.144531 148.769531 "/>
<path fill-rule="nonzero" fill="rgb(10.195923%, 9.01947%, 10.588074%)" fill-opacity="1" d="M 174.003906 139.019531 L 172.386719 139.019531 L 172.386719 147.328125 L 174.042969 147.328125 C 174.6875 147.328125 175.191406 147.273438 175.550781 147.164062 C 175.90625 147.054688 176.207031 146.917969 176.445312 146.75 C 176.683594 146.582031 176.902344 146.375 177.101562 146.128906 C 177.742188 145.328125 178.058594 144.320312 178.058594 143.097656 C 178.058594 141.898438 177.730469 140.917969 177.074219 140.164062 C 176.835938 139.878906 176.558594 139.648438 176.246094 139.464844 C 175.933594 139.285156 175.636719 139.164062 175.355469 139.105469 C 175.074219 139.046875 174.625 139.019531 174.003906 139.019531 M 171.09375 148.753906 L 171.09375 137.59375 L 174.140625 137.59375 C 175.367188 137.59375 176.339844 137.820312 177.058594 138.277344 C 177.773438 138.734375 178.339844 139.40625 178.765625 140.289062 C 179.1875 141.175781 179.398438 142.140625 179.398438 143.183594 C 179.398438 143.933594 179.28125 144.648438 179.046875 145.328125 C 178.816406 146.011719 178.484375 146.613281 178.050781 147.128906 C 177.613281 147.664062 177.101562 148.066406 176.519531 148.335938 C 176.179688 148.503906 175.867188 148.613281 175.582031 148.667969 C 175.296875 148.726562 174.753906 148.753906 173.953125 148.753906 Z M 171.09375 148.753906 "/>
<path fill-rule="nonzero" fill="rgb(10.195923%, 9.01947%, 10.588074%)" fill-opacity="1" d="M 186.710938 138.953125 L 186.324219 138.953125 L 186.324219 142.480469 L 186.816406 142.480469 C 187.46875 142.480469 187.917969 142.410156 188.164062 142.273438 C 188.40625 142.136719 188.597656 141.925781 188.730469 141.644531 C 188.867188 141.367188 188.9375 141.046875 188.9375 140.691406 C 188.9375 140.339844 188.859375 140.019531 188.710938 139.734375 C 188.558594 139.449219 188.347656 139.246094 188.074219 139.128906 C 187.796875 139.011719 187.34375 138.953125 186.710938 138.953125 M 185.027344 148.769531 L 185.027344 137.59375 L 187.292969 137.59375 C 188.207031 137.59375 188.933594 137.875 189.46875 138.433594 C 190.007812 138.992188 190.273438 139.75 190.273438 140.707031 C 190.273438 141.355469 190.144531 141.917969 189.878906 142.394531 C 189.617188 142.867188 189.238281 143.222656 188.75 143.457031 C 189.035156 143.691406 189.320312 144.011719 189.597656 144.417969 C 189.871094 144.824219 190.261719 145.53125 190.761719 146.539062 C 191.074219 147.171875 191.328125 147.648438 191.519531 147.96875 L 191.996094 148.769531 L 190.457031 148.769531 L 190.0625 148.03125 C 190.050781 148.007812 190.023438 147.960938 189.984375 147.898438 L 189.734375 147.457031 L 189.332031 146.640625 L 188.898438 145.769531 C 188.632812 145.308594 188.386719 144.945312 188.164062 144.671875 C 187.941406 144.402344 187.742188 144.203125 187.5625 144.085938 C 187.382812 143.964844 187.082031 143.90625 186.660156 143.90625 L 186.324219 143.90625 L 186.324219 148.769531 Z M 185.027344 148.769531 "/>
<path fill-rule="nonzero" fill="rgb(10.195923%, 9.01947%, 10.588074%)" fill-opacity="1" d="M 200.65625 138.953125 C 199.621094 138.953125 198.773438 139.355469 198.105469 140.152344 C 197.441406 140.953125 197.109375 141.976562 197.109375 143.21875 C 197.109375 144.421875 197.441406 145.425781 198.109375 146.226562 C 198.777344 147.023438 199.613281 147.425781 200.617188 147.425781 C 201.625 147.425781 202.46875 147.015625 203.140625 146.203125 C 203.816406 145.386719 204.152344 144.371094 204.152344 143.152344 C 204.152344 141.96875 203.816406 140.972656 203.140625 140.167969 C 202.46875 139.359375 201.636719 138.953125 200.65625 138.953125 M 200.605469 137.433594 C 202 137.433594 203.164062 137.980469 204.09375 139.074219 C 205.019531 140.167969 205.484375 141.539062 205.484375 143.183594 C 205.484375 144.832031 205.015625 146.199219 204.078125 147.277344 C 203.140625 148.359375 201.960938 148.898438 200.535156 148.898438 C 199.171875 148.898438 198.035156 148.359375 197.128906 147.277344 C 196.222656 146.199219 195.769531 144.84375 195.769531 143.21875 C 195.769531 141.546875 196.226562 140.167969 197.140625 139.074219 C 198.054688 137.980469 199.207031 137.433594 200.605469 137.433594 "/>
<path fill-rule="nonzero" fill="rgb(10.195923%, 9.01947%, 10.588074%)" fill-opacity="1" d="M 213.554688 143.800781 L 212.34375 143.800781 L 212.34375 147.34375 L 213.617188 147.34375 C 214.324219 147.34375 214.804688 147.277344 215.058594 147.140625 C 215.3125 147.003906 215.511719 146.792969 215.664062 146.507812 C 215.820312 146.21875 215.894531 145.910156 215.894531 145.578125 C 215.894531 145.238281 215.816406 144.925781 215.652344 144.640625 C 215.492188 144.359375 215.261719 144.148438 214.964844 144.007812 C 214.664062 143.871094 214.195312 143.800781 213.554688 143.800781 M 213.457031 139.015625 L 212.34375 139.015625 L 212.34375 142.378906 L 213.203125 142.378906 C 213.894531 142.378906 214.386719 142.214844 214.675781 141.890625 C 214.96875 141.566406 215.113281 141.144531 215.113281 140.625 C 215.113281 139.554688 214.5625 139.015625 213.457031 139.015625 M 214.109375 148.769531 L 211.050781 148.769531 L 211.050781 137.59375 L 213.417969 137.59375 C 214.164062 137.59375 214.746094 137.71875 215.164062 137.964844 C 215.582031 138.214844 215.902344 138.554688 216.121094 138.992188 C 216.34375 139.425781 216.453125 139.929688 216.453125 140.496094 C 216.453125 141.597656 215.992188 142.382812 215.074219 142.859375 C 215.734375 143.011719 216.257812 143.347656 216.648438 143.867188 C 217.039062 144.382812 217.234375 145.003906 217.234375 145.722656 C 217.234375 146.292969 217.117188 146.800781 216.878906 147.25 C 216.640625 147.699219 216.292969 148.0625 215.835938 148.34375 C 215.375 148.628906 214.800781 148.769531 214.109375 148.769531 "/>
<path fill-rule="nonzero" fill="rgb(10.195923%, 9.01947%, 10.588074%)" fill-opacity="1" d="M 222.484375 137.59375 L 227.605469 137.59375 L 227.605469 139.019531 L 223.777344 139.019531 L 223.777344 142.425781 L 227.476562 142.425781 L 227.476562 143.859375 L 223.777344 143.859375 L 223.777344 147.328125 L 227.730469 147.328125 L 227.730469 148.753906 L 222.484375 148.753906 Z M 222.484375 137.59375 "/>
<path fill-rule="nonzero" fill="rgb(10.195923%, 9.01947%, 10.588074%)" fill-opacity="1" d="M 243.660156 139.019531 L 242.042969 139.019531 L 242.042969 147.328125 L 243.699219 147.328125 C 244.347656 147.328125 244.847656 147.273438 245.207031 147.164062 C 245.5625 147.054688 245.863281 146.917969 246.101562 146.75 C 246.34375 146.582031 246.5625 146.375 246.757812 146.128906 C 247.398438 145.328125 247.71875 144.320312 247.71875 143.097656 C 247.71875 141.898438 247.386719 140.917969 246.734375 140.164062 C 246.492188 139.878906 246.214844 139.648438 245.902344 139.464844 C 245.589844 139.285156 245.292969 139.164062 245.015625 139.105469 C 244.730469 139.046875 244.28125 139.019531 243.660156 139.019531 M 240.75 148.753906 L 240.75 137.59375 L 243.796875 137.59375 C 245.027344 137.59375 246 137.820312 246.714844 138.277344 C 247.429688 138.734375 248 139.40625 248.421875 140.289062 C 248.84375 141.175781 249.054688 142.140625 249.054688 143.183594 C 249.054688 143.933594 248.9375 144.648438 248.707031 145.328125 C 248.472656 146.011719 248.140625 146.613281 247.710938 147.128906 C 247.269531 147.664062 246.757812 148.066406 246.175781 148.335938 C 245.835938 148.503906 245.523438 148.613281 245.238281 148.667969 C 244.953125 148.726562 244.410156 148.753906 243.609375 148.753906 Z M 240.75 148.753906 "/>
<path fill-rule="nonzero" fill="rgb(10.195923%, 9.01947%, 10.588074%)" fill-opacity="1" d="M 254.648438 137.59375 L 259.769531 137.59375 L 259.769531 139.019531 L 255.941406 139.019531 L 255.941406 142.425781 L 259.640625 142.425781 L 259.640625 143.859375 L 255.941406 143.859375 L 255.941406 147.328125 L 259.894531 147.328125 L 259.894531 148.753906 L 254.648438 148.753906 Z M 254.648438 137.59375 "/>
<path fill-rule="nonzero" fill="rgb(10.195923%, 9.01947%, 10.588074%)" fill-opacity="1" d="M 267.484375 144.085938 L 266.5 143.347656 C 265.882812 142.882812 265.445312 142.425781 265.183594 141.972656 C 264.921875 141.523438 264.792969 141.003906 264.792969 140.417969 C 264.792969 139.539062 265.039062 138.824219 265.53125 138.273438 C 266.027344 137.726562 266.667969 137.449219 267.457031 137.449219 C 268.210938 137.449219 268.902344 137.710938 269.535156 138.238281 L 269.535156 140.050781 C 268.882812 139.277344 268.179688 138.890625 267.429688 138.890625 C 267.007812 138.890625 266.660156 139.011719 266.390625 139.253906 C 266.117188 139.492188 265.980469 139.804688 265.980469 140.179688 C 265.980469 140.515625 266.082031 140.828125 266.28125 141.121094 C 266.484375 141.414062 266.804688 141.71875 267.25 142.042969 L 268.234375 142.765625 C 269.339844 143.578125 269.886719 144.613281 269.886719 145.875 C 269.886719 146.769531 269.648438 147.5 269.160156 148.058594 C 268.675781 148.617188 268.042969 148.898438 267.269531 148.898438 C 266.375 148.898438 265.5625 148.558594 264.832031 147.878906 L 264.832031 145.847656 C 265.527344 146.941406 266.335938 147.488281 267.257812 147.488281 C 267.660156 147.488281 268 147.351562 268.269531 147.070312 C 268.539062 146.792969 268.671875 146.441406 268.671875 146.023438 C 268.671875 145.34375 268.277344 144.699219 267.484375 144.085938 "/>
<path fill-rule="nonzero" fill="rgb(10.195923%, 9.01947%, 10.588074%)" fill-opacity="1" d="M 275.300781 137.59375 L 276.59375 137.59375 L 276.59375 148.769531 L 275.300781 148.769531 Z M 275.300781 137.59375 "/>
<path fill-rule="nonzero" fill="rgb(10.195923%, 9.01947%, 10.588074%)" fill-opacity="1" d="M 287.457031 143.265625 L 290.488281 143.265625 L 290.488281 148 C 289.378906 148.597656 288.273438 148.898438 287.179688 148.898438 C 285.683594 148.898438 284.484375 148.359375 283.59375 147.277344 C 282.695312 146.199219 282.25 144.867188 282.25 143.28125 C 282.25 141.613281 282.710938 140.222656 283.640625 139.113281 C 284.566406 138.003906 285.730469 137.449219 287.125 137.449219 C 287.636719 137.449219 288.117188 137.519531 288.574219 137.652344 C 289.03125 137.789062 289.609375 138.039062 290.308594 138.402344 L 290.308594 140.035156 C 289.230469 139.261719 288.160156 138.875 287.101562 138.875 C 286.113281 138.875 285.28125 139.289062 284.605469 140.121094 C 283.925781 140.953125 283.589844 141.972656 283.589844 143.1875 C 283.589844 144.457031 283.925781 145.492188 284.605469 146.296875 C 285.28125 147.101562 286.152344 147.503906 287.21875 147.503906 C 287.734375 147.503906 288.351562 147.359375 289.074219 147.066406 L 289.195312 147.019531 L 289.195312 144.691406 L 287.457031 144.691406 Z M 287.457031 143.265625 "/>
<path fill-rule="nonzero" fill="rgb(10.195923%, 9.01947%, 10.588074%)" fill-opacity="1" d="M 303.535156 137.59375 L 304.761719 137.59375 L 304.761719 148.769531 L 303.652344 148.769531 L 297.609375 140.164062 L 297.609375 148.769531 L 296.390625 148.769531 L 296.390625 137.59375 L 297.441406 137.59375 L 303.535156 146.273438 Z M 303.535156 137.59375 "/>
<path fill-rule="nonzero" fill="rgb(10.195923%, 9.01947%, 10.588074%)" fill-opacity="1" d="M 310.671875 137.59375 L 315.792969 137.59375 L 315.792969 139.019531 L 311.964844 139.019531 L 311.964844 142.425781 L 315.664062 142.425781 L 315.664062 143.859375 L 311.964844 143.859375 L 311.964844 147.328125 L 315.917969 147.328125 L 315.917969 148.753906 L 310.671875 148.753906 Z M 310.671875 137.59375 "/>
<path fill-rule="nonzero" fill="rgb(10.195923%, 9.01947%, 10.588074%)" fill-opacity="1" d="M 322.992188 138.953125 L 322.601562 138.953125 L 322.601562 142.480469 L 323.09375 142.480469 C 323.75 142.480469 324.199219 142.410156 324.441406 142.273438 C 324.6875 142.136719 324.875 141.925781 325.011719 141.644531 C 325.148438 141.367188 325.214844 141.046875 325.214844 140.691406 C 325.214844 140.339844 325.140625 140.019531 324.988281 139.734375 C 324.839844 139.449219 324.625 139.246094 324.351562 139.128906 C 324.078125 139.011719 323.625 138.953125 322.992188 138.953125 M 321.308594 148.769531 L 321.308594 137.59375 L 323.570312 137.59375 C 324.488281 137.59375 325.210938 137.875 325.75 138.433594 C 326.285156 138.992188 326.554688 139.75 326.554688 140.707031 C 326.554688 141.355469 326.421875 141.917969 326.160156 142.394531 C 325.898438 142.867188 325.519531 143.222656 325.027344 143.457031 C 325.316406 143.691406 325.597656 144.011719 325.875 144.417969 C 326.152344 144.824219 326.539062 145.53125 327.039062 146.539062 C 327.355469 147.171875 327.605469 147.648438 327.796875 147.96875 L 328.273438 148.769531 L 326.734375 148.769531 L 326.339844 148.03125 C 326.328125 148.007812 326.300781 147.960938 326.261719 147.898438 L 326.011719 147.457031 L 325.609375 146.640625 L 325.179688 145.769531 C 324.910156 145.308594 324.667969 144.945312 324.445312 144.671875 C 324.222656 144.402344 324.019531 144.203125 323.84375 144.085938 C 323.664062 143.964844 323.359375 143.90625 322.9375 143.90625 L 322.601562 143.90625 L 322.601562 148.769531 Z M 321.308594 148.769531 "/>
</svg>
