<?xml version="1.0" encoding="UTF-8"?>
<svg xmlns="http://www.w3.org/2000/svg" width="160" height="160" viewBox="0 0 160 160" role="img" aria-label="PURITY favicon">
  <g transform="translate(30.000000 0.000000) scale(1.234567901)">
    <path fill-rule="nonzero" fill="rgb(43.920898%, 44.313049%, 45.097351%)" fill-opacity="1" d="M 40.714844 95.464844 C 40.640625 95.609375 40.566406 95.75 40.496094 95.886719 C 40.558594 95.761719 40.628906 95.632812 40.714844 95.464844 M 73.121094 55.847656 C 72.640625 53.625 69.542969 52.894531 66.519531 53.003906 C 63.941406 53.09375 61.441406 53.835938 60.378906 54.261719 C 59.316406 54.6875 58.21875 55.195312 57.183594 55.738281 C 56.605469 56.039062 56.105469 56.46875 55.574219 56.851562 C 54.738281 57.449219 53.933594 58.097656 53.144531 58.765625 C 51.554688 60.121094 50.023438 61.570312 48.589844 63.117188 C 48.125 63.621094 47.667969 64.132812 47.238281 64.671875 L 44.355469 68.46875 C 44.351562 68.476562 44.34375 68.484375 44.339844 68.496094 L 42.125 72.269531 C 42.121094 72.277344 42.117188 72.285156 42.117188 72.289062 C 41.320312 73.960938 40.527344 75.632812 39.730469 77.304688 C 39.714844 77.257812 39.691406 77.210938 39.675781 77.164062 C 39.628906 77.539062 39.46875 77.867188 39.304688 78.191406 C 39.101562 78.582031 38.859375 78.941406 38.652344 79.328125 C 38.382812 79.832031 38.09375 80.332031 37.832031 80.84375 C 37.136719 82.242188 36.4375 83.683594 35.964844 85.210938 C 35.652344 86.234375 35.398438 87.363281 35.582031 88.441406 C 35.855469 90.019531 36.996094 91.410156 37.761719 92.746094 C 38.8125 94.574219 39.511719 96.527344 40.402344 98.4375 C 40.820312 99.332031 41.308594 100.0625 41.664062 100.996094 C 42.175781 102.351562 42.804688 103.78125 42.777344 105.273438 C 42.757812 106.234375 42.515625 106.878906 42 107.644531 C 41.996094 107.75 41.996094 107.832031 41.988281 107.9375 C 42.515625 108.878906 43.042969 109.792969 43.671875 110.726562 C 43.785156 110.898438 43.683594 111.433594 43.613281 111.589844 C 43.4375 111.996094 43.796875 110.871094 44.050781 110.078125 C 44.058594 110.058594 44.0625 110.039062 44.070312 110.019531 C 44.320312 109.210938 44.433594 108.355469 44.664062 107.554688 C 45.28125 105.425781 45.566406 103.53125 44.710938 101.382812 C 44.378906 100.550781 43.773438 99.90625 43.28125 99.179688 C 42.414062 97.90625 41.640625 96.542969 40.84375 95.21875 C 40.269531 94.261719 39.695312 93.300781 39.117188 92.339844 C 39.113281 92.335938 39.109375 92.328125 39.105469 92.320312 C 39.105469 92.320312 38.039062 90.269531 38.039062 90.269531 C 37.671875 89.554688 37.355469 88.738281 37.28125 87.898438 C 37.203125 87.023438 37.476562 86.253906 37.738281 85.445312 C 38.433594 83.277344 39.230469 81.085938 40.21875 79.046875 C 41.234375 76.945312 42.417969 74.8125 43.648438 72.84375 C 43.648438 72.84375 47.398438 67.125 47.550781 66.894531 C 47.550781 66.890625 47.554688 66.886719 47.558594 66.882812 C 49.570312 64.253906 52.949219 59.941406 55.453125 58.28125 C 55.941406 57.957031 58.171875 56.742188 58.789062 56.394531 C 58.792969 56.394531 58.796875 56.390625 58.800781 56.386719 C 60.820312 55.417969 63.160156 54.601562 65.375 54.433594 C 67.152344 54.296875 68.921875 54.796875 70.257812 55.546875 C 70.273438 55.550781 70.285156 55.558594 70.296875 55.570312 C 70.382812 55.484375 70.472656 55.398438 70.5625 55.3125 C 70.652344 55.230469 70.785156 55.226562 70.878906 55.308594 C 71.214844 55.59375 71.984375 56.253906 72.292969 56.515625 C 72.367188 56.582031 72.464844 56.589844 72.554688 56.546875 C 72.628906 56.507812 72.71875 56.46875 72.828125 56.429688 C 73.246094 56.296875 73.125 55.859375 73.121094 55.847656 "/>
<path fill-rule="nonzero" fill="rgb(43.920898%, 44.313049%, 45.097351%)" fill-opacity="1" d="M 56.210938 42.996094 C 55.039062 44.78125 53.335938 46.289062 51.792969 47.390625 C 50.953125 47.992188 50.21875 48.648438 49.292969 49.019531 C 47.4375 49.75 45.472656 50.148438 43.503906 49.992188 C 41.429688 49.828125 39.109375 49.066406 37.253906 47.992188 C 34.320312 46.296875 31.210938 43.121094 30.355469 39.550781 C 29.996094 38.039062 30.496094 36.316406 31.613281 35.296875 C 31.621094 35.289062 37.234375 30.171875 37.234375 30.171875 C 38.398438 29.109375 39.566406 28.058594 40.734375 27 C 41.390625 26.40625 42.089844 25.835938 42.71875 25.203125 C 43.148438 24.769531 43.546875 24.304688 43.941406 23.832031 C 44.335938 24.304688 44.734375 24.769531 45.164062 25.203125 C 45.792969 25.835938 46.492188 26.40625 47.148438 27 C 48.316406 28.058594 49.484375 29.109375 50.648438 30.171875 C 51.914062 31.324219 53.175781 32.476562 54.441406 33.628906 C 56.210938 35.246094 57.984375 36.742188 57.589844 39.542969 C 57.417969 40.773438 56.90625 41.933594 56.210938 42.996094 M 29.742188 34.925781 C 29.519531 34.898438 29.304688 34.785156 29.144531 34.621094 C 28.84375 31.6875 29.207031 28.699219 30.359375 26.054688 C 31.492188 23.449219 33.273438 21.117188 35.519531 19.566406 C 35.605469 19.472656 35.738281 19.386719 35.902344 19.3125 C 36.363281 19.082031 37.039062 18.917969 37.390625 18.835938 C 38.167969 18.644531 38.769531 18.773438 39.378906 19.3125 C 40.1875 20.03125 40.996094 20.757812 41.800781 21.472656 C 42.261719 21.878906 42.671875 22.324219 43.070312 22.785156 C 39.921875 26.007812 36.667969 29.074219 33.328125 32.09375 C 33.289062 32.128906 31.445312 33.792969 31.445312 33.792969 C 30.972656 34.21875 30.417969 35.007812 29.742188 34.925781 M 46.078125 21.472656 C 46.886719 20.757812 47.691406 20.03125 48.503906 19.3125 C 49.113281 18.773438 49.714844 18.644531 50.488281 18.835938 C 50.964844 18.949219 52.035156 19.207031 52.367188 19.570312 C 52.308594 19.503906 52.246094 19.441406 52.1875 19.371094 C 53.347656 20.078125 54.386719 20.96875 55.324219 22.023438 C 56.980469 23.886719 58.0625 26.332031 58.582031 28.796875 C 58.976562 30.683594 59 32.652344 58.753906 34.601562 C 58.589844 34.777344 58.371094 34.894531 58.140625 34.925781 C 57.464844 35.007812 56.90625 34.21875 56.4375 33.792969 C 56.4375 33.792969 54.59375 32.128906 54.554688 32.09375 C 51.214844 29.074219 47.960938 26.007812 44.8125 22.785156 C 45.210938 22.324219 45.621094 21.878906 46.078125 21.472656 M 60.023438 30.972656 C 59.492188 25.199219 56.140625 19.453125 51.285156 16.652344 C 50.964844 16.472656 50.632812 16.308594 50.277344 16.265625 C 50.242188 16.261719 50.199219 16.257812 50.160156 16.257812 C 49.816406 16.246094 49.449219 16.390625 49.242188 16.679688 C 48.601562 16.871094 47.710938 17.976562 47.300781 18.375 C 46.84375 18.816406 46.40625 19.269531 45.976562 19.734375 C 45.300781 20.460938 44.625 21.179688 43.941406 21.890625 C 43.257812 21.179688 42.578125 20.460938 41.90625 19.734375 C 41.472656 19.269531 41.035156 18.816406 40.582031 18.375 C 40.203125 18.007812 39.417969 17.042969 38.792969 16.742188 C 38.601562 16.53125 38.332031 16.386719 38.054688 16.359375 C 37.488281 16.296875 36.949219 16.464844 36.457031 16.773438 C 35.144531 17.601562 34.003906 18.644531 32.960938 19.789062 C 31.554688 21.332031 30.367188 23.082031 29.59375 25 C 28.046875 28.832031 27.671875 33.949219 28.492188 38.039062 C 29.414062 42.640625 32.171875 45.894531 35.738281 48.429688 C 41.035156 52.195312 47.753906 51.941406 52.972656 48.109375 C 54.753906 46.804688 56.28125 45.113281 57.460938 43.179688 C 58.054688 42.199219 58.601562 41.144531 58.976562 40.046875 C 59.363281 38.925781 59.34375 37.601562 59.550781 36.417969 C 59.859375 34.640625 60.183594 32.707031 60.023438 30.972656 "/>
<path fill-rule="nonzero" fill="rgb(43.920898%, 44.313049%, 45.097351%)" fill-opacity="1" d="M 49.132812 74.652344 C 49.132812 74.679688 49.132812 74.707031 49.128906 74.734375 C 49.003906 75.617188 48.871094 76.484375 48.5625 77.28125 C 48.398438 77.707031 48.1875 78.113281 47.898438 78.492188 C 47.851562 78.546875 47.808594 78.605469 47.765625 78.660156 C 46.976562 79.609375 45.890625 80.238281 44.710938 80.425781 C 42.960938 80.699219 41.488281 79.890625 40.496094 78.675781 C 40.199219 78.316406 39.949219 77.917969 39.742188 77.503906 C 39.71875 77.453125 39.691406 77.40625 39.671875 77.355469 C 38.992188 75.886719 38.957031 74.253906 39.03125 72.644531 L 39.21875 68.519531 C 39.21875 68.507812 39.21875 68.496094 39.222656 68.484375 C 39.359375 67.339844 39.449219 66.203125 39.519531 65.070312 C 39.554688 64.449219 39.585938 63.832031 39.617188 63.214844 C 39.664062 62.210938 39.707031 61.207031 39.761719 60.195312 C 39.859375 58.480469 40.085938 56.742188 40.1875 55.007812 C 40.386719 51.511719 40.691406 48 40.894531 44.503906 C 40.9375 43.179688 40.980469 41.828125 41.023438 40.472656 L 42.140625 39.003906 C 42.179688 38.957031 42.210938 38.894531 42.230469 38.835938 C 42.222656 39.027344 42.210938 39.214844 42.210938 39.394531 C 42.1875 41.832031 41.898438 44.152344 41.914062 46.507812 C 41.914062 46.578125 41.90625 46.644531 41.902344 46.714844 C 41.667969 52.039062 41.652344 57.433594 41.003906 62.726562 C 40.925781 63.363281 40.886719 64.015625 40.867188 64.679688 C 40.84375 65.386719 40.835938 66.105469 40.816406 66.839844 C 40.808594 67.058594 40.796875 67.277344 40.789062 67.496094 C 40.683594 69.496094 40.472656 71.582031 40.628906 73.457031 C 40.699219 74.261719 40.648438 74.523438 40.75 75.136719 C 40.773438 75.261719 40.800781 75.40625 40.835938 75.574219 C 40.945312 76.070312 41.089844 76.597656 41.292969 77.09375 C 41.617188 77.886719 42.089844 78.578125 42.808594 78.851562 C 43.496094 79.113281 44.371094 79.214844 45.0625 78.921875 C 45.847656 78.585938 46.53125 77.917969 46.996094 77.136719 C 47.332031 76.566406 47.554688 75.941406 47.621094 75.34375 L 47.621094 75.339844 C 47.636719 75.21875 47.640625 75.097656 47.640625 74.976562 C 47.640625 74.972656 47.773438 72.597656 47.773438 72.597656 L 47.664062 70.171875 L 47.410156 66.90625 L 47.246094 64.867188 L 47.195312 64.203125 L 46.523438 53.140625 C 46.492188 51.402344 46.386719 49.65625 46.386719 47.921875 C 46.25 44.921875 46.042969 41.914062 45.964844 38.910156 C 45.980469 38.941406 46 38.976562 46.023438 39.003906 L 46.9375 40.210938 L 47.246094 44.011719 L 47.945312 53.464844 L 48.429688 60.953125 L 48.585938 63.292969 L 48.710938 65.121094 L 49.039062 70.027344 Z M 49.132812 74.652344 "/>
<path fill-rule="nonzero" fill="rgb(43.920898%, 44.313049%, 45.097351%)" fill-opacity="1" d="M 50.234375 102.617188 C 50.03125 103.21875 49.808594 103.78125 49.550781 104.363281 C 48.839844 105.746094 48.121094 107.121094 47.511719 108.558594 C 47.136719 109.441406 46.808594 110.351562 46.457031 111.25 C 46.4375 111.308594 46.414062 111.367188 46.394531 111.425781 C 46.320312 111.613281 46.238281 111.792969 46.152344 111.945312 C 46.019531 112.1875 45.832031 112.378906 45.652344 112.582031 C 45.417969 112.851562 45.347656 113.085938 45.105469 112.714844 C 44.917969 112.429688 44.761719 112.121094 44.640625 111.796875 C 44.5625 111.597656 44.304688 111.046875 44.441406 110.84375 C 45.109375 109.847656 45.441406 109.039062 46.003906 108.027344 C 46.21875 107.644531 46.429688 107.257812 46.652344 106.859375 C 47.085938 106.070312 47.503906 105.269531 47.78125 104.40625 C 47.984375 103.773438 48.113281 103.105469 48.113281 102.433594 C 48.113281 102.339844 48.082031 101.78125 48.027344 101.335938 L 47.8125 100.914062 C 47.523438 100.351562 47.234375 99.792969 46.941406 99.238281 C 46.578125 98.550781 46.210938 97.863281 45.84375 97.179688 C 45.152344 95.894531 44.453125 94.613281 43.757812 93.320312 C 43.742188 93.292969 43.730469 93.265625 43.714844 93.238281 C 43.363281 92.578125 43.007812 91.917969 42.664062 91.257812 C 41.195312 88.453125 39.78125 85.625 38.394531 82.777344 C 38.101562 82.179688 37.8125 81.585938 37.523438 80.984375 C 35.847656 77.527344 34.191406 74.050781 32.5 70.566406 C 31.144531 67.785156 29.792969 65.09375 28.421875 62.320312 C 27.949219 61.363281 27.433594 60.371094 27.574219 59.519531 C 27.75 58.457031 28.398438 57.460938 29.0625 56.492188 C 29.304688 56.136719 29.550781 55.785156 29.773438 55.433594 C 29.863281 55.300781 29.945312 55.164062 30.027344 55.027344 C 31.542969 52.476562 33.058594 49.921875 34.574219 47.371094 C 35.542969 45.738281 36.511719 44.101562 37.480469 42.46875 C 38.199219 41.257812 38.917969 40.050781 39.632812 38.84375 C 40.054688 38.128906 40.589844 36.746094 41.230469 36.242188 C 41.398438 36.113281 41.640625 36.070312 41.816406 36.191406 C 42.1875 36.453125 42.207031 37.164062 42.21875 37.578125 C 42.226562 37.945312 42.238281 38.3125 42.183594 38.671875 C 42.117188 39.101562 41.917969 39.363281 41.671875 39.703125 C 41.242188 40.300781 40.785156 40.871094 40.296875 41.414062 C 39.84375 41.917969 39.417969 42.546875 39.035156 43.121094 C 38.226562 44.335938 37.539062 45.574219 36.828125 46.859375 C 35.507812 49.246094 34.195312 51.648438 32.785156 53.980469 C 32.3125 54.765625 31.808594 55.535156 31.335938 56.328125 C 31.132812 56.671875 30.9375 57.015625 30.75 57.363281 C 30.59375 57.660156 30.445312 57.960938 30.304688 58.265625 C 30.015625 58.90625 29.609375 59.722656 29.609375 60.449219 C 29.609375 61.203125 30.003906 61.914062 30.222656 62.589844 C 30.980469 64.957031 32.445312 67.097656 33.632812 69.246094 C 34.585938 70.960938 35.242188 72.699219 36.105469 74.425781 C 36.105469 74.425781 37.085938 76.3125 38.515625 79.058594 C 38.757812 79.53125 39.015625 80.027344 39.285156 80.542969 C 40.628906 83.125 42.230469 86.210938 43.757812 89.152344 C 44.128906 89.863281 44.496094 90.570312 44.851562 91.257812 C 45.617188 92.722656 46.335938 94.109375 46.964844 95.320312 C 47.308594 95.980469 47.625 96.585938 47.90625 97.128906 C 48.664062 98.585938 49.171875 99.566406 49.289062 99.785156 C 49.300781 99.816406 49.316406 99.847656 49.332031 99.878906 C 49.597656 100.511719 50.433594 101.503906 50.25 102.144531 C 50.289062 102.300781 50.289062 102.457031 50.234375 102.617188 "/>
<path fill-rule="nonzero" fill="rgb(43.920898%, 44.313049%, 45.097351%)" fill-opacity="1" d="M 61.679688 45.074219 C 61.6875 45.320312 61.675781 45.558594 61.585938 45.796875 C 61.25 46.679688 60.183594 47.773438 59.535156 48.398438 C 58.054688 49.832031 56.230469 50.957031 54.628906 52.21875 C 53.269531 53.292969 51.65625 53.984375 50.359375 55.148438 C 47.914062 57.332031 45.515625 59.570312 43.171875 61.878906 C 42 63.03125 40.84375 64.203125 39.703125 65.390625 C 38.640625 66.5 37.433594 67.59375 36.667969 68.96875 C 36.21875 69.769531 35.875 70.769531 35.253906 71.4375 C 34.734375 71.996094 33.871094 72.382812 33.160156 72.535156 C 32.15625 72.75 31 73.050781 29.988281 72.871094 C 28.355469 72.578125 27.15625 71.21875 26.101562 69.847656 C 24.457031 67.703125 23.238281 65.234375 21.824219 62.910156 C 20.414062 60.582031 17.625 57.804688 15.371094 56.429688 C 15.964844 56.539062 17.039062 55.546875 17.542969 55.121094 C 17.761719 54.933594 19.792969 57.28125 21.3125 59.167969 C 22.519531 60.671875 23.5625 62.378906 24.28125 63.621094 C 25.070312 64.980469 25.777344 66.394531 26.679688 67.671875 C 27.125 68.308594 27.617188 68.90625 28.179688 69.425781 C 30.253906 71.335938 33.242188 69.9375 35.066406 68.382812 C 35.359375 68.132812 35.664062 67.898438 35.945312 67.632812 C 36.695312 66.90625 37.425781 66.148438 38.132812 65.367188 C 39.730469 63.601562 41.464844 61.992188 43.128906 60.285156 C 44.359375 59.019531 45.589844 57.75 46.863281 56.535156 C 48.195312 55.269531 49.773438 54.136719 51.226562 53.039062 L 54.765625 50.003906 C 55.980469 48.921875 57.792969 48.054688 58.957031 46.8125 C 59.007812 46.757812 59.066406 46.699219 59.121094 46.636719 C 59.917969 45.472656 59.773438 43.707031 59.140625 42.320312 C 58.726562 41.414062 58.628906 40.378906 58.84375 39.394531 C 59.179688 37.839844 59.597656 36.261719 59.828125 34.742188 C 59.488281 36.992188 60.523438 39.828125 61.160156 42.015625 C 61.21875 42.210938 61.273438 42.402344 61.328125 42.597656 C 61.550781 43.429688 61.796875 44.269531 61.679688 45.074219 "/>
<path fill-rule="nonzero" fill="rgb(43.920898%, 44.313049%, 45.097351%)" fill-opacity="1" d="M 47.652344 95.777344 C 47.613281 95.710938 47.578125 95.640625 47.542969 95.574219 C 47.578125 95.640625 47.613281 95.710938 47.652344 95.777344 M 15.371094 56.429688 C 15.484375 56.46875 15.574219 56.507812 15.648438 56.546875 C 15.734375 56.589844 15.835938 56.582031 15.910156 56.515625 C 16.214844 56.253906 17.546875 55.226562 17.636719 55.3125 C 17.726562 55.398438 17.816406 55.484375 17.90625 55.566406 C 17.917969 55.558594 17.929688 55.550781 17.941406 55.546875 C 19.277344 54.796875 21.050781 54.296875 22.824219 54.433594 C 25.042969 54.601562 27.378906 55.417969 29.398438 56.386719 C 29.402344 56.390625 29.410156 56.390625 29.414062 56.394531 C 30.03125 56.742188 32.261719 57.957031 32.746094 58.28125 C 35.25 59.941406 38.632812 64.253906 40.640625 66.882812 C 40.644531 66.886719 40.648438 66.890625 40.652344 66.894531 C 40.804688 67.125 44.550781 72.839844 44.554688 72.84375 C 45.78125 74.8125 46.964844 76.945312 47.984375 79.046875 C 48.972656 81.085938 49.765625 83.277344 50.464844 85.445312 C 50.722656 86.253906 50.996094 87.023438 50.917969 87.898438 C 50.847656 88.738281 50.53125 89.558594 50.160156 90.269531 L 49.09375 92.320312 C 49.09375 92.328125 49.089844 92.335938 49.082031 92.34375 C 48.507812 93.300781 47.933594 94.257812 47.355469 95.21875 C 46.558594 96.542969 45.789062 97.90625 44.921875 99.179688 C 44.429688 99.90625 43.824219 100.550781 43.492188 101.382812 C 42.632812 103.53125 42.921875 105.425781 43.535156 107.554688 C 43.769531 108.355469 43.882812 109.210938 44.128906 110.019531 C 44.136719 110.039062 44.144531 110.058594 44.148438 110.078125 C 44.402344 110.871094 44.761719 111.996094 44.585938 111.589844 C 44.519531 111.4375 44.417969 110.898438 44.53125 110.726562 C 45.15625 109.792969 45.6875 108.878906 46.210938 107.9375 C 46.207031 107.832031 46.203125 107.75 46.199219 107.644531 C 45.6875 106.878906 45.445312 106.234375 45.425781 105.273438 C 45.394531 103.78125 46.027344 102.351562 46.539062 100.996094 C 46.890625 100.066406 47.382812 99.332031 47.800781 98.4375 C 48.6875 96.527344 49.386719 94.574219 50.4375 92.746094 C 51.207031 91.410156 52.347656 90.019531 52.621094 88.441406 C 52.804688 87.363281 52.550781 86.234375 52.234375 85.210938 C 51.765625 83.683594 51.066406 82.242188 50.367188 80.847656 C 50.109375 80.332031 49.816406 79.832031 49.546875 79.328125 C 49.34375 78.941406 49.101562 78.578125 48.898438 78.191406 C 48.730469 77.867188 48.574219 77.539062 48.527344 77.164062 C 48.507812 77.210938 48.488281 77.257812 48.46875 77.304688 C 47.675781 75.632812 46.882812 73.960938 46.085938 72.289062 C 46.082031 72.285156 46.082031 72.277344 46.074219 72.273438 L 43.863281 68.496094 C 43.859375 68.484375 43.851562 68.476562 43.84375 68.46875 L 40.964844 64.671875 C 40.53125 64.132812 40.074219 63.621094 39.609375 63.117188 C 38.175781 61.570312 36.648438 60.121094 35.054688 58.765625 C 34.269531 58.097656 33.460938 57.453125 32.628906 56.851562 C 32.097656 56.46875 31.597656 56.039062 31.019531 55.738281 C 29.980469 55.195312 28.882812 54.6875 27.824219 54.261719 C 26.757812 53.835938 24.257812 53.089844 21.683594 53.003906 C 18.65625 52.894531 15.5625 53.625 15.082031 55.847656 C 15.078125 55.859375 14.957031 56.296875 15.371094 56.429688 "/>
<path fill-rule="nonzero" fill="rgb(43.920898%, 44.313049%, 45.097351%)" fill-opacity="1" d="M 26.5 45.074219 C 26.492188 45.320312 26.503906 45.558594 26.59375 45.796875 C 26.929688 46.679688 27.992188 47.773438 28.640625 48.398438 C 30.125 49.832031 31.945312 50.957031 33.546875 52.21875 C 34.910156 53.292969 36.523438 53.984375 37.820312 55.148438 C 40.265625 57.332031 42.664062 59.570312 45.007812 61.878906 C 46.175781 63.03125 47.335938 64.203125 48.472656 65.390625 C 49.539062 66.5 50.746094 67.59375 51.511719 68.96875 C 51.957031 69.769531 52.304688 70.769531 52.925781 71.4375 C 53.445312 71.996094 54.308594 72.382812 55.019531 72.535156 C 56.023438 72.75 57.179688 73.050781 58.191406 72.871094 C 59.824219 72.578125 61.023438 71.21875 62.078125 69.847656 C 63.722656 67.703125 64.941406 65.234375 66.351562 62.910156 C 67.765625 60.582031 70.554688 57.804688 72.804688 56.429688 C 72.214844 56.539062 71.140625 55.546875 70.636719 55.121094 C 70.417969 54.933594 68.386719 57.28125 66.867188 59.167969 C 65.660156 60.671875 64.617188 62.378906 63.898438 63.621094 C 63.109375 64.980469 62.398438 66.394531 61.5 67.671875 C 61.054688 68.308594 60.5625 68.90625 60 69.425781 C 57.925781 71.335938 54.933594 69.9375 53.113281 68.382812 C 52.820312 68.132812 52.515625 67.898438 52.234375 67.632812 C 51.484375 66.90625 50.753906 66.148438 50.046875 65.367188 C 48.449219 63.601562 46.710938 61.992188 45.050781 60.285156 C 43.816406 59.019531 42.589844 57.75 41.3125 56.535156 C 39.984375 55.269531 38.40625 54.136719 36.953125 53.039062 L 33.414062 50.003906 C 32.199219 48.921875 30.382812 48.054688 29.222656 46.8125 C 29.171875 46.757812 29.113281 46.699219 29.054688 46.636719 C 28.261719 45.472656 28.40625 43.707031 29.039062 42.320312 C 29.453125 41.414062 29.550781 40.378906 29.335938 39.394531 C 29 37.839844 28.582031 36.261719 28.351562 34.742188 C 28.691406 36.992188 27.65625 39.828125 27.015625 42.015625 C 26.960938 42.210938 26.90625 42.402344 26.851562 42.597656 C 26.628906 43.429688 26.378906 44.269531 26.5 45.074219 "/>
<path fill-rule="nonzero" fill="rgb(43.920898%, 44.313049%, 45.097351%)" fill-opacity="1" d="M 37.921875 102.617188 C 38.125 103.21875 38.351562 103.78125 38.605469 104.363281 C 39.316406 105.746094 40.039062 107.121094 40.648438 108.558594 C 41.023438 109.441406 41.347656 110.351562 41.699219 111.25 C 41.722656 111.308594 41.742188 111.367188 41.765625 111.425781 C 41.839844 111.613281 41.921875 111.792969 42.003906 111.945312 C 42.140625 112.1875 42.328125 112.378906 42.503906 112.582031 C 42.738281 112.851562 42.808594 113.085938 43.054688 112.714844 C 43.242188 112.429688 43.398438 112.121094 43.519531 111.796875 C 43.59375 111.597656 43.851562 111.046875 43.714844 110.84375 C 43.050781 109.847656 42.714844 109.039062 42.152344 108.027344 C 41.941406 107.644531 41.726562 107.257812 41.507812 106.859375 C 41.070312 106.070312 40.65625 105.269531 40.375 104.40625 C 40.171875 103.773438 40.046875 103.105469 40.046875 102.433594 C 40.046875 102.339844 40.078125 101.78125 40.132812 101.335938 L 40.34375 100.914062 C 40.632812 100.351562 40.921875 99.792969 41.21875 99.238281 C 41.578125 98.550781 41.949219 97.863281 42.316406 97.179688 C 43.007812 95.894531 43.707031 94.613281 44.398438 93.320312 C 44.414062 93.292969 44.429688 93.265625 44.441406 93.238281 C 44.796875 92.578125 45.148438 91.917969 45.492188 91.257812 C 46.964844 88.453125 48.375 85.625 49.765625 82.777344 C 50.054688 82.179688 50.347656 81.585938 50.636719 80.984375 C 52.3125 77.527344 53.964844 74.050781 55.660156 70.566406 C 57.011719 67.785156 58.363281 65.09375 59.734375 62.320312 C 60.210938 61.363281 60.726562 60.371094 60.582031 59.519531 C 60.40625 58.457031 59.761719 57.460938 59.097656 56.492188 C 58.851562 56.136719 58.605469 55.785156 58.382812 55.433594 C 58.296875 55.300781 58.210938 55.164062 58.132812 55.027344 C 56.617188 52.476562 55.101562 49.921875 53.585938 47.371094 C 52.617188 45.738281 51.648438 44.101562 50.675781 42.46875 C 49.957031 41.257812 49.242188 40.050781 48.523438 38.84375 C 48.101562 38.128906 47.570312 36.746094 46.929688 36.242188 C 46.757812 36.113281 46.515625 36.070312 46.339844 36.191406 C 45.96875 36.453125 45.953125 37.164062 45.941406 37.578125 C 45.929688 37.945312 45.917969 38.3125 45.972656 38.671875 C 46.039062 39.101562 46.242188 39.363281 46.488281 39.703125 C 46.914062 40.300781 47.371094 40.871094 47.859375 41.414062 C 48.3125 41.917969 48.738281 42.546875 49.121094 43.121094 C 49.929688 44.335938 50.617188 45.574219 51.328125 46.859375 C 52.652344 49.246094 53.964844 51.648438 55.371094 53.980469 C 55.847656 54.765625 56.351562 55.535156 56.820312 56.328125 C 57.023438 56.671875 57.222656 57.015625 57.40625 57.363281 C 57.5625 57.660156 57.710938 57.960938 57.851562 58.265625 C 58.144531 58.90625 58.546875 59.722656 58.546875 60.449219 C 58.546875 61.203125 58.152344 61.914062 57.9375 62.589844 C 57.179688 64.957031 55.714844 67.097656 54.523438 69.246094 C 53.570312 70.960938 52.914062 72.699219 52.054688 74.425781 C 52.050781 74.425781 51.070312 76.3125 49.644531 79.058594 C 49.398438 79.53125 49.140625 80.027344 48.875 80.542969 C 47.53125 83.125 45.925781 86.210938 44.398438 89.152344 C 44.027344 89.863281 43.664062 90.570312 43.304688 91.257812 C 42.542969 92.722656 41.824219 94.109375 41.191406 95.320312 C 40.847656 95.980469 40.53125 96.585938 40.253906 97.128906 C 39.492188 98.585938 38.984375 99.566406 38.871094 99.785156 C 38.855469 99.816406 38.839844 99.847656 38.828125 99.878906 C 38.558594 100.511719 37.722656 101.503906 37.90625 102.144531 C 37.871094 102.300781 37.867188 102.457031 37.921875 102.617188 "/>
  </g>
</svg>
