<?xml version="1.0" encoding="UTF-8"?>
<svg xmlns="http://www.w3.org/2000/svg" xmlns:xlink="http://www.w3.org/1999/xlink" width="352.8pt" height="140.4pt" viewBox="0 0 352.8 140.4">
<path fill-rule="nonzero" fill="rgb(56.863403%, 56.079102%, 55.686951%)" fill-opacity="1" d="M 92.453125 101.03125 C 92.382812 101.175781 92.308594 101.316406 92.234375 101.453125 C 92.296875 101.328125 92.367188 101.199219 92.453125 101.03125 M 124.824219 61.460938 C 124.339844 59.242188 121.25 58.511719 118.226562 58.621094 C 115.65625 58.710938 113.15625 59.453125 112.09375 59.878906 C 111.035156 60.304688 109.9375 60.808594 108.902344 61.351562 C 108.324219 61.652344 107.824219 62.082031 107.292969 62.464844 C 106.460938 63.0625 105.660156 63.707031 104.871094 64.375 C 103.28125 65.730469 101.753906 67.179688 100.320312 68.722656 C 99.855469 69.226562 99.398438 69.738281 98.96875 70.273438 L 96.089844 74.070312 C 96.085938 74.078125 96.078125 74.085938 96.074219 74.09375 L 93.863281 77.863281 C 93.859375 77.871094 93.855469 77.878906 93.851562 77.886719 C 93.058594 79.554688 92.265625 81.226562 91.472656 82.894531 C 91.453125 82.847656 91.433594 82.800781 91.414062 82.753906 C 91.367188 83.125 91.210938 83.453125 91.042969 83.777344 C 90.84375 84.167969 90.601562 84.527344 90.394531 84.914062 C 90.125 85.417969 89.832031 85.917969 89.574219 86.429688 C 88.878906 87.824219 88.179688 89.265625 87.710938 90.789062 C 87.398438 91.8125 87.140625 92.941406 87.328125 94.015625 C 87.597656 95.589844 88.738281 96.980469 89.503906 98.316406 C 90.554688 100.144531 91.253906 102.09375 92.140625 104 C 92.558594 104.894531 93.046875 105.625 93.402344 106.558594 C 93.914062 107.910156 94.542969 109.339844 94.511719 110.832031 C 94.492188 111.789062 94.25 112.433594 93.738281 113.199219 C 93.734375 113.304688 93.730469 113.382812 93.726562 113.488281 C 94.253906 114.429688 94.78125 115.34375 95.40625 116.277344 C 95.519531 116.449219 95.417969 116.984375 95.347656 117.136719 C 95.175781 117.542969 95.53125 116.421875 95.785156 115.628906 C 95.792969 115.609375 95.796875 115.589844 95.804688 115.570312 C 96.054688 114.761719 96.167969 113.90625 96.402344 113.105469 C 97.015625 110.980469 97.300781 109.089844 96.445312 106.945312 C 96.113281 106.113281 95.507812 105.46875 95.015625 104.742188 C 94.152344 103.472656 93.378906 102.109375 92.582031 100.785156 C 92.007812 99.828125 91.433594 98.871094 90.859375 97.914062 C 90.855469 97.90625 90.847656 97.898438 90.84375 97.890625 C 90.84375 97.890625 89.78125 95.84375 89.78125 95.84375 C 89.414062 95.128906 89.097656 94.3125 89.023438 93.476562 C 88.945312 92.597656 89.21875 91.832031 89.480469 91.027344 C 90.175781 88.859375 90.972656 86.667969 91.957031 84.636719 C 92.972656 82.535156 94.15625 80.402344 95.382812 78.4375 C 95.386719 78.4375 99.128906 72.726562 99.28125 72.496094 C 99.28125 72.492188 99.285156 72.484375 99.289062 72.480469 C 101.296875 69.859375 104.675781 65.550781 107.175781 63.890625 C 107.660156 63.570312 109.886719 62.355469 110.503906 62.007812 C 110.511719 62.007812 110.515625 62.003906 110.519531 62 C 112.535156 61.03125 114.871094 60.21875 117.085938 60.046875 C 118.859375 59.914062 120.628906 60.410156 121.964844 61.160156 C 121.976562 61.167969 121.988281 61.171875 122 61.183594 C 122.089844 61.097656 122.175781 61.011719 122.269531 60.925781 C 122.355469 60.84375 122.488281 60.839844 122.582031 60.921875 C 122.917969 61.207031 123.6875 61.867188 123.992188 62.128906 C 124.066406 62.195312 124.167969 62.203125 124.253906 62.160156 C 124.328125 62.121094 124.417969 62.082031 124.53125 62.042969 C 124.945312 61.910156 124.824219 61.472656 124.824219 61.460938 "/>
<path fill-rule="nonzero" fill="rgb(56.863403%, 56.079102%, 55.686951%)" fill-opacity="1" d="M 107.929688 48.625 C 106.761719 50.40625 105.058594 51.914062 103.519531 53.015625 C 102.679688 53.617188 101.945312 54.273438 101.019531 54.640625 C 99.167969 55.371094 97.207031 55.769531 95.242188 55.613281 C 93.167969 55.449219 90.851562 54.6875 88.996094 53.617188 C 86.066406 51.921875 82.960938 48.75 82.105469 45.183594 C 81.746094 43.675781 82.246094 41.953125 83.363281 40.933594 C 83.371094 40.929688 88.976562 35.816406 88.976562 35.816406 C 90.140625 34.757812 91.304688 33.707031 92.472656 32.648438 C 93.125 32.054688 93.828125 31.484375 94.453125 30.855469 C 94.886719 30.421875 95.28125 29.957031 95.675781 29.480469 C 96.070312 29.957031 96.464844 30.421875 96.898438 30.855469 C 97.523438 31.484375 98.226562 32.054688 98.882812 32.648438 C 100.046875 33.707031 101.214844 34.757812 102.375 35.816406 C 103.636719 36.964844 104.898438 38.117188 106.160156 39.269531 C 107.929688 40.882812 109.703125 42.378906 109.308594 45.175781 C 109.136719 46.40625 108.625 47.5625 107.929688 48.625 M 81.496094 40.5625 C 81.269531 40.535156 81.058594 40.425781 80.894531 40.257812 C 80.597656 37.332031 80.960938 34.347656 82.109375 31.703125 C 83.242188 29.101562 85.023438 26.773438 87.265625 25.222656 C 87.351562 25.128906 87.484375 25.042969 87.644531 24.96875 C 88.105469 24.742188 88.78125 24.574219 89.132812 24.492188 C 89.910156 24.304688 90.511719 24.429688 91.121094 24.96875 C 91.929688 25.6875 92.734375 26.410156 93.539062 27.128906 C 93.996094 27.53125 94.410156 27.976562 94.804688 28.441406 C 91.664062 31.65625 88.410156 34.722656 85.074219 37.738281 C 85.035156 37.769531 83.195312 39.433594 83.195312 39.433594 C 82.722656 39.859375 82.167969 40.644531 81.496094 40.5625 M 97.8125 27.128906 C 98.621094 26.410156 99.421875 25.6875 100.234375 24.96875 C 100.84375 24.429688 101.441406 24.304688 102.21875 24.492188 C 102.691406 24.605469 103.757812 24.867188 104.09375 25.226562 C 104.03125 25.160156 103.972656 25.097656 103.914062 25.027344 C 105.070312 25.734375 106.109375 26.625 107.042969 27.675781 C 108.699219 29.539062 109.78125 31.980469 110.300781 34.445312 C 110.695312 36.328125 110.714844 38.296875 110.472656 40.242188 C 110.304688 40.417969 110.089844 40.535156 109.855469 40.5625 C 109.183594 40.644531 108.628906 39.859375 108.15625 39.433594 C 108.15625 39.433594 106.316406 37.769531 106.277344 37.738281 C 102.941406 34.722656 99.691406 31.65625 96.546875 28.441406 C 96.945312 27.976562 97.355469 27.53125 97.8125 27.128906 M 111.742188 36.617188 C 111.210938 30.847656 107.859375 25.109375 103.007812 22.3125 C 102.691406 22.132812 102.359375 21.96875 102.007812 21.925781 C 101.96875 21.921875 101.929688 21.917969 101.890625 21.917969 C 101.542969 21.90625 101.175781 22.050781 100.972656 22.339844 C 100.332031 22.53125 99.441406 23.636719 99.03125 24.035156 C 98.578125 24.472656 98.136719 24.925781 97.710938 25.390625 C 97.035156 26.117188 96.359375 26.832031 95.675781 27.542969 C 94.992188 26.832031 94.316406 26.117188 93.644531 25.390625 C 93.210938 24.925781 92.773438 24.472656 92.320312 24.035156 C 91.941406 23.667969 91.160156 22.699219 90.535156 22.402344 C 90.34375 22.191406 90.070312 22.050781 89.796875 22.019531 C 89.230469 21.960938 88.695312 22.125 88.199219 22.433594 C 86.890625 23.257812 85.75 24.300781 84.710938 25.445312 C 83.304688 26.988281 82.117188 28.738281 81.347656 30.648438 C 79.800781 34.480469 79.425781 39.589844 80.246094 43.671875 C 81.167969 48.269531 83.921875 51.519531 87.484375 54.050781 C 92.773438 57.8125 99.484375 57.558594 104.699219 53.734375 C 106.476562 52.429688 108.003906 50.738281 109.179688 48.804688 C 109.773438 47.828125 110.316406 46.773438 110.695312 45.679688 C 111.082031 44.558594 111.0625 43.238281 111.269531 42.054688 C 111.578125 40.277344 111.898438 38.347656 111.742188 36.617188 "/>
<path fill-rule="nonzero" fill="rgb(56.863403%, 56.079102%, 55.686951%)" fill-opacity="1" d="M 100.863281 80.242188 C 100.863281 80.269531 100.859375 80.296875 100.855469 80.324219 C 100.734375 81.207031 100.601562 82.074219 100.292969 82.871094 C 100.128906 83.292969 99.914062 83.699219 99.628906 84.082031 C 99.582031 84.132812 99.539062 84.191406 99.496094 84.246094 C 98.710938 85.195312 97.621094 85.824219 96.445312 86.011719 C 94.699219 86.28125 93.226562 85.476562 92.234375 84.261719 C 91.941406 83.902344 91.6875 83.503906 91.480469 83.089844 C 91.457031 83.042969 91.433594 82.992188 91.414062 82.941406 C 90.734375 81.476562 90.699219 79.847656 90.769531 78.238281 L 90.957031 74.121094 C 90.957031 74.109375 90.960938 74.09375 90.960938 74.082031 C 91.101562 72.941406 91.191406 71.804688 91.257812 70.671875 C 91.296875 70.054688 91.328125 69.4375 91.355469 68.820312 C 91.402344 67.816406 91.445312 66.8125 91.503906 65.804688 C 91.597656 64.089844 91.824219 62.355469 91.925781 60.625 C 92.125 57.132812 92.429688 53.621094 92.632812 50.132812 C 92.675781 48.808594 92.71875 47.457031 92.761719 46.105469 L 93.875 44.640625 C 93.917969 44.589844 93.949219 44.53125 93.96875 44.46875 C 93.957031 44.660156 93.949219 44.847656 93.949219 45.027344 C 93.925781 47.460938 93.636719 49.78125 93.652344 52.132812 C 93.652344 52.203125 93.644531 52.269531 93.640625 52.339844 C 93.402344 57.65625 93.390625 63.046875 92.742188 68.332031 C 92.664062 68.96875 92.628906 69.621094 92.605469 70.28125 C 92.582031 70.988281 92.574219 71.710938 92.554688 72.441406 C 92.546875 72.660156 92.539062 72.878906 92.527344 73.097656 C 92.421875 75.09375 92.210938 77.175781 92.371094 79.046875 C 92.4375 79.851562 92.386719 80.113281 92.492188 80.726562 C 92.511719 80.855469 92.539062 81 92.574219 81.164062 C 92.683594 81.660156 92.828125 82.1875 93.03125 82.683594 C 93.351562 83.476562 93.824219 84.164062 94.542969 84.4375 C 95.234375 84.703125 96.105469 84.800781 96.792969 84.507812 C 97.582031 84.175781 98.265625 83.503906 98.726562 82.722656 C 99.066406 82.15625 99.285156 81.53125 99.351562 80.933594 L 99.351562 80.929688 C 99.367188 80.808594 99.371094 80.6875 99.371094 80.570312 C 99.371094 80.5625 99.503906 78.195312 99.503906 78.195312 L 99.394531 75.769531 L 99.140625 72.507812 L 98.980469 70.46875 L 98.925781 69.808594 L 98.257812 58.757812 C 98.226562 57.023438 98.117188 55.277344 98.117188 53.542969 C 97.980469 50.550781 97.773438 47.542969 97.695312 44.542969 C 97.710938 44.574219 97.730469 44.609375 97.753906 44.640625 L 98.667969 45.84375 L 98.976562 49.636719 L 99.675781 59.082031 L 100.160156 66.558594 L 100.316406 68.894531 L 100.441406 70.722656 L 100.441406 70.726562 L 100.769531 75.625 Z M 100.863281 80.242188 "/>
<path fill-rule="nonzero" fill="rgb(56.863403%, 56.079102%, 55.686951%)" fill-opacity="1" d="M 101.964844 108.175781 C 101.761719 108.777344 101.535156 109.339844 101.28125 109.921875 C 100.570312 111.300781 99.851562 112.671875 99.242188 114.109375 C 98.867188 114.992188 98.542969 115.902344 98.191406 116.800781 C 98.167969 116.859375 98.148438 116.914062 98.125 116.972656 C 98.050781 117.164062 97.96875 117.339844 97.886719 117.492188 C 97.75 117.734375 97.566406 117.925781 97.386719 118.128906 C 97.152344 118.398438 97.082031 118.632812 96.839844 118.261719 C 96.652344 117.976562 96.496094 117.667969 96.371094 117.34375 C 96.296875 117.144531 96.039062 116.597656 96.175781 116.394531 C 96.84375 115.398438 97.175781 114.589844 97.738281 113.582031 C 97.949219 113.199219 98.164062 112.808594 98.382812 112.414062 C 98.816406 111.625 99.234375 110.824219 99.511719 109.960938 C 99.714844 109.328125 99.84375 108.664062 99.84375 107.992188 C 99.84375 107.898438 99.8125 107.339844 99.757812 106.894531 L 99.542969 106.476562 C 99.253906 105.914062 98.964844 105.355469 98.671875 104.800781 C 98.308594 104.113281 97.945312 103.429688 97.574219 102.746094 C 96.882812 101.460938 96.1875 100.179688 95.492188 98.886719 C 95.480469 98.863281 95.464844 98.835938 95.449219 98.808594 C 95.097656 98.148438 94.746094 97.488281 94.398438 96.828125 C 92.933594 94.03125 91.523438 91.203125 90.132812 88.359375 C 89.84375 87.765625 89.554688 87.167969 89.265625 86.566406 C 87.589844 83.117188 85.941406 79.644531 84.25 76.164062 C 82.898438 73.382812 81.546875 70.695312 80.175781 67.925781 C 79.703125 66.96875 79.1875 65.980469 79.328125 65.128906 C 79.507812 64.070312 80.152344 63.074219 80.8125 62.105469 C 81.058594 61.75 81.304688 61.398438 81.527344 61.050781 C 81.613281 60.914062 81.699219 60.78125 81.777344 60.644531 C 83.292969 58.09375 84.804688 55.542969 86.320312 52.992188 C 87.289062 51.363281 88.253906 49.730469 89.222656 48.097656 C 89.941406 46.890625 90.65625 45.683594 91.375 44.476562 C 91.796875 43.765625 92.328125 42.382812 92.96875 41.882812 C 93.136719 41.75 93.378906 41.707031 93.554688 41.828125 C 93.925781 42.089844 93.941406 42.800781 93.953125 43.214844 C 93.964844 43.578125 93.976562 43.945312 93.921875 44.308594 C 93.855469 44.738281 93.652344 44.996094 93.410156 45.335938 C 92.980469 45.933594 92.523438 46.5 92.039062 47.042969 C 91.585938 47.550781 91.160156 48.175781 90.777344 48.75 C 89.96875 49.964844 89.285156 51.203125 88.574219 52.484375 C 87.25 54.871094 85.941406 57.265625 84.535156 59.597656 C 84.0625 60.382812 83.558594 61.152344 83.085938 61.941406 C 82.882812 62.28125 82.6875 62.628906 82.5 62.976562 C 82.34375 63.269531 82.195312 63.570312 82.058594 63.875 C 81.765625 64.519531 81.363281 65.332031 81.363281 66.058594 C 81.363281 66.8125 81.757812 67.523438 81.972656 68.199219 C 82.730469 70.558594 84.195312 72.699219 85.382812 74.84375 C 86.332031 76.558594 86.988281 78.292969 87.847656 80.015625 C 87.851562 80.019531 88.832031 81.902344 90.257812 84.644531 C 90.5 85.117188 90.757812 85.609375 91.027344 86.128906 C 92.367188 88.707031 93.96875 91.789062 95.492188 94.726562 C 95.863281 95.4375 96.230469 96.140625 96.585938 96.828125 C 97.351562 98.292969 98.070312 99.675781 98.699219 100.886719 C 99.039062 101.546875 99.355469 102.152344 99.636719 102.691406 C 100.394531 104.148438 100.902344 105.128906 101.015625 105.347656 C 101.03125 105.378906 101.046875 105.410156 101.058594 105.441406 C 101.324219 106.074219 102.164062 107.066406 101.976562 107.703125 C 102.015625 107.859375 102.015625 108.015625 101.964844 108.175781 "/>
<path fill-rule="nonzero" fill="rgb(56.863403%, 56.079102%, 55.686951%)" fill-opacity="1" d="M 113.390625 50.703125 C 113.402344 50.945312 113.390625 51.1875 113.296875 51.421875 C 112.964844 52.304688 111.902344 53.398438 111.253906 54.019531 C 109.773438 55.453125 107.953125 56.574219 106.351562 57.835938 C 104.992188 58.910156 103.378906 59.601562 102.085938 60.761719 C 99.644531 62.945312 97.246094 65.179688 94.910156 67.484375 C 93.738281 68.636719 92.582031 69.804688 91.445312 70.992188 C 90.382812 72.101562 89.175781 73.191406 88.410156 74.566406 C 87.964844 75.367188 87.621094 76.367188 87 77.03125 C 86.480469 77.589844 85.617188 77.976562 84.90625 78.128906 C 83.90625 78.34375 82.75 78.644531 81.742188 78.464844 C 80.109375 78.171875 78.910156 76.8125 77.859375 75.445312 C 76.214844 73.304688 75 70.835938 73.585938 68.515625 C 72.175781 66.191406 69.390625 63.414062 67.140625 62.042969 C 67.734375 62.152344 68.804688 61.164062 69.308594 60.734375 C 69.527344 60.546875 71.558594 62.894531 73.074219 64.777344 C 74.277344 66.277344 75.320312 67.984375 76.039062 69.226562 C 76.828125 70.582031 77.535156 71.996094 78.433594 73.273438 C 78.878906 73.90625 79.371094 74.507812 79.933594 75.023438 C 82.003906 76.929688 84.992188 75.535156 86.8125 73.984375 C 87.101562 73.734375 87.40625 73.5 87.6875 73.230469 C 88.4375 72.507812 89.167969 71.75 89.875 70.96875 C 91.46875 69.207031 93.203125 67.597656 94.863281 65.890625 C 96.09375 64.628906 97.324219 63.363281 98.597656 62.148438 C 99.921875 60.886719 101.5 59.753906 102.953125 58.65625 L 106.488281 55.625 C 107.703125 54.542969 109.511719 53.675781 110.671875 52.4375 C 110.726562 52.382812 110.78125 52.324219 110.839844 52.261719 C 111.632812 51.097656 111.488281 49.335938 110.855469 47.949219 C 110.441406 47.042969 110.347656 46.007812 110.5625 45.027344 C 110.898438 43.472656 111.3125 41.898438 111.542969 40.378906 C 111.203125 42.628906 112.238281 45.460938 112.875 47.644531 C 112.933594 47.839844 112.988281 48.035156 113.042969 48.226562 C 113.265625 49.058594 113.511719 49.898438 113.390625 50.703125 "/>
<path fill-rule="nonzero" fill="rgb(56.863403%, 56.079102%, 55.686951%)" fill-opacity="1" d="M 99.382812 101.34375 C 99.34375 101.277344 99.308594 101.207031 99.273438 101.140625 C 99.3125 101.207031 99.34375 101.277344 99.382812 101.34375 M 67.140625 62.042969 C 67.253906 62.082031 67.34375 62.121094 67.417969 62.160156 C 67.503906 62.203125 67.605469 62.195312 67.679688 62.128906 C 67.984375 61.867188 69.3125 60.84375 69.402344 60.925781 C 69.492188 61.011719 69.582031 61.097656 69.671875 61.183594 C 69.683594 61.171875 69.695312 61.167969 69.707031 61.160156 C 71.042969 60.410156 72.8125 59.914062 74.585938 60.046875 C 76.800781 60.21875 79.136719 61.03125 81.152344 62 C 81.15625 62.003906 81.160156 62.003906 81.164062 62.007812 C 81.78125 62.355469 84.011719 63.570312 84.496094 63.894531 C 86.996094 65.550781 90.375 69.859375 92.382812 72.480469 C 92.386719 72.488281 92.386719 72.492188 92.390625 72.496094 C 92.542969 72.726562 96.285156 78.4375 96.289062 78.4375 C 97.515625 80.402344 98.699219 82.535156 99.714844 84.636719 C 100.703125 86.667969 101.496094 88.859375 102.191406 91.027344 C 102.449219 91.832031 102.722656 92.597656 102.644531 93.476562 C 102.574219 94.3125 102.257812 95.132812 101.890625 95.84375 L 100.824219 97.890625 C 100.820312 97.898438 100.816406 97.90625 100.8125 97.914062 C 100.238281 98.871094 99.664062 99.828125 99.085938 100.785156 C 98.292969 102.109375 97.519531 103.472656 96.652344 104.742188 C 96.164062 105.46875 95.558594 106.113281 95.226562 106.945312 C 94.371094 109.089844 94.660156 110.980469 95.269531 113.105469 C 95.503906 113.90625 95.617188 114.761719 95.867188 115.570312 C 95.871094 115.589844 95.878906 115.609375 95.882812 115.628906 C 96.136719 116.421875 96.496094 117.542969 96.320312 117.136719 C 96.253906 116.984375 96.152344 116.449219 96.265625 116.277344 C 96.890625 115.34375 97.417969 114.429688 97.945312 113.488281 C 97.941406 113.382812 97.9375 113.304688 97.929688 113.199219 C 97.417969 112.433594 97.175781 111.789062 97.15625 110.832031 C 97.128906 109.339844 97.757812 107.910156 98.269531 106.558594 C 98.625 105.625 99.113281 104.894531 99.53125 104 C 100.417969 102.09375 101.113281 100.144531 102.167969 98.316406 C 102.933594 96.980469 104.070312 95.59375 104.34375 94.015625 C 104.53125 92.941406 104.273438 91.808594 103.960938 90.792969 C 103.488281 89.265625 102.792969 87.824219 102.09375 86.429688 C 101.839844 85.917969 101.546875 85.417969 101.273438 84.914062 C 101.070312 84.527344 100.828125 84.167969 100.628906 83.777344 C 100.460938 83.453125 100.304688 83.125 100.257812 82.753906 C 100.238281 82.800781 100.21875 82.847656 100.199219 82.894531 C 99.40625 81.226562 98.613281 79.554688 97.820312 77.886719 C 97.816406 77.878906 97.8125 77.871094 97.808594 77.867188 L 95.597656 74.09375 C 95.59375 74.085938 95.585938 74.078125 95.578125 74.070312 L 92.703125 70.273438 C 92.273438 69.738281 91.816406 69.226562 91.351562 68.722656 C 89.917969 67.179688 88.390625 65.730469 86.800781 64.375 C 86.015625 63.707031 85.210938 63.0625 84.375 62.464844 C 83.84375 62.082031 83.347656 61.652344 82.769531 61.351562 C 81.734375 60.808594 80.636719 60.304688 79.578125 59.878906 C 78.515625 59.453125 76.015625 58.707031 73.441406 58.621094 C 70.421875 58.515625 67.332031 59.242188 66.847656 61.460938 C 66.847656 61.472656 66.726562 61.910156 67.140625 62.042969 "/>
<path fill-rule="nonzero" fill="rgb(56.863403%, 56.079102%, 55.686951%)" fill-opacity="1" d="M 78.257812 50.703125 C 78.246094 50.945312 78.261719 51.1875 78.351562 51.421875 C 78.683594 52.304688 79.746094 53.398438 80.394531 54.019531 C 81.875 55.453125 83.695312 56.574219 85.296875 57.835938 C 86.65625 58.910156 88.265625 59.601562 89.5625 60.761719 C 92.003906 62.945312 94.398438 65.179688 96.742188 67.484375 C 97.910156 68.636719 99.066406 69.804688 100.203125 70.992188 C 101.265625 72.101562 102.472656 73.191406 103.238281 74.566406 C 103.683594 75.367188 104.027344 76.367188 104.648438 77.03125 C 105.167969 77.589844 106.03125 77.976562 106.742188 78.128906 C 107.746094 78.34375 108.898438 78.644531 109.90625 78.464844 C 111.539062 78.171875 112.738281 76.8125 113.789062 75.445312 C 115.433594 73.304688 116.652344 70.835938 118.0625 68.515625 C 119.472656 66.191406 122.257812 63.414062 124.507812 62.042969 C 123.917969 62.152344 122.84375 61.164062 122.339844 60.734375 C 122.121094 60.546875 120.09375 62.894531 118.574219 64.777344 C 117.371094 66.277344 116.328125 67.984375 115.609375 69.226562 C 114.820312 70.582031 114.113281 71.996094 113.214844 73.273438 C 112.769531 73.90625 112.277344 74.507812 111.714844 75.023438 C 109.644531 76.929688 106.65625 75.535156 104.839844 73.984375 C 104.542969 73.734375 104.242188 73.5 103.960938 73.230469 C 103.210938 72.507812 102.480469 71.75 101.777344 70.96875 C 100.175781 69.207031 98.445312 67.597656 96.785156 65.890625 C 95.554688 64.628906 94.324219 63.363281 93.050781 62.148438 C 91.726562 60.886719 90.144531 59.753906 88.699219 58.65625 L 85.164062 55.625 C 83.945312 54.542969 82.136719 53.675781 80.972656 52.4375 C 80.921875 52.382812 80.867188 52.324219 80.808594 52.261719 C 80.015625 51.097656 80.160156 49.335938 80.792969 47.949219 C 81.207031 47.042969 81.300781 46.007812 81.089844 45.027344 C 80.75 43.472656 80.335938 41.898438 80.105469 40.378906 C 80.445312 42.628906 79.410156 45.460938 78.773438 47.644531 C 78.714844 47.839844 78.660156 48.035156 78.609375 48.226562 C 78.382812 49.058594 78.136719 49.898438 78.257812 50.703125 "/>
<path fill-rule="nonzero" fill="rgb(56.863403%, 56.079102%, 55.686951%)" fill-opacity="1" d="M 89.664062 108.175781 C 89.867188 108.777344 90.09375 109.339844 90.347656 109.921875 C 91.054688 111.300781 91.777344 112.671875 92.386719 114.109375 C 92.761719 114.992188 93.085938 115.902344 93.4375 116.800781 C 93.457031 116.859375 93.480469 116.914062 93.503906 116.972656 C 93.578125 117.164062 93.660156 117.339844 93.742188 117.492188 C 93.878906 117.734375 94.0625 117.925781 94.242188 118.128906 C 94.476562 118.398438 94.546875 118.632812 94.789062 118.261719 C 94.976562 117.976562 95.132812 117.667969 95.253906 117.34375 C 95.328125 117.144531 95.585938 116.597656 95.449219 116.394531 C 94.785156 115.398438 94.453125 114.589844 93.890625 113.582031 C 93.679688 113.199219 93.464844 112.808594 93.246094 112.414062 C 92.8125 111.625 92.394531 110.824219 92.117188 109.960938 C 91.914062 109.328125 91.785156 108.664062 91.785156 107.992188 C 91.785156 107.898438 91.816406 107.339844 91.871094 106.894531 L 92.085938 106.476562 C 92.371094 105.914062 92.664062 105.355469 92.957031 104.800781 C 93.316406 104.113281 93.683594 103.429688 94.054688 102.746094 C 94.742188 101.460938 95.441406 100.179688 96.132812 98.886719 C 96.148438 98.863281 96.164062 98.835938 96.175781 98.808594 C 96.53125 98.148438 96.882812 97.488281 97.226562 96.828125 C 98.695312 94.03125 100.105469 91.203125 101.492188 88.359375 C 101.785156 87.765625 102.074219 87.167969 102.363281 86.566406 C 104.039062 83.117188 105.6875 79.644531 107.378906 76.164062 C 108.730469 73.382812 110.082031 70.695312 111.449219 67.925781 C 111.925781 66.96875 112.441406 65.980469 112.296875 65.128906 C 112.121094 64.070312 111.476562 63.074219 110.8125 62.105469 C 110.570312 61.75 110.324219 61.398438 110.101562 61.050781 C 110.015625 60.914062 109.929688 60.78125 109.851562 60.644531 C 108.335938 58.09375 106.820312 55.542969 105.308594 52.992188 C 104.339844 51.363281 103.371094 49.730469 102.402344 48.097656 C 101.6875 46.890625 100.96875 45.683594 100.253906 44.476562 C 99.832031 43.765625 99.300781 42.382812 98.660156 41.882812 C 98.492188 41.75 98.25 41.707031 98.074219 41.828125 C 97.703125 42.089844 97.683594 42.800781 97.671875 43.214844 C 97.664062 43.578125 97.652344 43.945312 97.707031 44.308594 C 97.773438 44.738281 97.972656 44.996094 98.21875 45.335938 C 98.648438 45.933594 99.105469 46.5 99.589844 47.042969 C 100.042969 47.550781 100.46875 48.175781 100.851562 48.75 C 101.660156 49.964844 102.34375 51.203125 103.054688 52.484375 C 104.378906 54.871094 105.6875 57.265625 107.09375 59.597656 C 107.566406 60.382812 108.070312 61.152344 108.542969 61.941406 C 108.742188 62.28125 108.941406 62.628906 109.125 62.976562 C 109.285156 63.269531 109.429688 63.570312 109.570312 63.875 C 109.863281 64.519531 110.265625 65.332031 110.265625 66.058594 C 110.265625 66.8125 109.871094 67.523438 109.65625 68.199219 C 108.898438 70.558594 107.433594 72.699219 106.246094 74.84375 C 105.296875 76.558594 104.640625 78.292969 103.777344 80.015625 C 103.777344 80.019531 102.796875 81.902344 101.371094 84.644531 C 101.128906 85.117188 100.871094 85.609375 100.601562 86.128906 C 99.261719 88.707031 97.660156 91.789062 96.132812 94.726562 C 95.761719 95.4375 95.398438 96.140625 95.042969 96.828125 C 94.277344 98.292969 93.558594 99.675781 92.929688 100.886719 C 92.585938 101.546875 92.273438 102.152344 91.992188 102.691406 C 91.234375 104.148438 90.722656 105.128906 90.613281 105.347656 C 90.597656 105.378906 90.582031 105.410156 90.566406 105.441406 C 90.300781 106.074219 89.464844 107.066406 89.648438 107.703125 C 89.613281 107.859375 89.613281 108.015625 89.664062 108.175781 "/>
<path fill-rule="nonzero" fill="rgb(3.137207%, 4.31366%, 5.882263%)" fill-opacity="1" d="M 54.5 82.066406 C 52.710938 84.78125 50.183594 86.160156 46.992188 86.160156 C 46.261719 86.160156 45.421875 86.097656 44.5 85.976562 C 43.5625 85.851562 42.660156 85.664062 41.8125 85.417969 L 41.617188 85.359375 L 41.617188 53.898438 L 41.84375 53.859375 C 42.191406 53.796875 42.699219 53.734375 43.347656 53.675781 C 44.011719 53.613281 44.75 53.582031 45.542969 53.582031 C 47.578125 53.582031 49.355469 53.832031 50.828125 54.328125 C 52.324219 54.828125 53.558594 55.738281 54.492188 57.023438 C 55.414062 58.296875 56.097656 60.007812 56.523438 62.105469 C 56.945312 64.1875 57.15625 66.8125 57.15625 69.917969 C 57.15625 75.300781 56.261719 79.386719 54.5 82.066406 M 62.617188 62.898438 C 61.792969 60.8125 60.636719 59 59.179688 57.515625 C 57.71875 56.027344 55.972656 54.863281 53.980469 54.0625 C 51.984375 53.257812 49.78125 52.851562 47.433594 52.851562 C 46.855469 52.851562 46.273438 52.867188 45.714844 52.894531 C 45.164062 52.925781 44.578125 52.941406 43.96875 52.941406 C 43.414062 53 42.816406 53.046875 42.21875 53.078125 C 41.648438 53.109375 41.046875 53.125 40.441406 53.125 L 28.867188 53.125 L 28.867188 53.855469 L 35.863281 53.855469 L 35.863281 116.824219 L 28.867188 116.824219 L 28.867188 117.554688 L 48.609375 117.554688 L 48.609375 116.824219 L 41.617188 116.824219 L 41.617188 86.082031 L 41.957031 86.171875 C 42.671875 86.351562 43.488281 86.519531 44.390625 86.667969 C 45.292969 86.816406 46.039062 86.890625 46.617188 86.890625 C 48.882812 86.890625 51.085938 86.5 53.167969 85.722656 C 55.242188 84.949219 57.089844 83.832031 58.65625 82.402344 C 60.214844 80.972656 61.484375 79.191406 62.433594 77.105469 C 63.378906 75.019531 63.859375 72.601562 63.859375 69.917969 C 63.859375 67.347656 63.441406 64.988281 62.617188 62.898438 "/>
<path fill-rule="nonzero" fill="rgb(3.137207%, 4.31366%, 5.882263%)" fill-opacity="1" d="M 190.894531 82.601562 L 184.824219 82.601562 L 184.824219 53.910156 L 185.039062 53.863281 C 185.59375 53.738281 186.277344 53.660156 187.074219 53.625 C 187.851562 53.597656 188.625 53.582031 189.382812 53.582031 C 190.492188 53.582031 191.632812 53.738281 192.761719 54.046875 C 193.921875 54.367188 194.980469 55.035156 195.914062 56.042969 C 196.84375 57.042969 197.605469 58.539062 198.183594 60.484375 C 198.753906 62.417969 199.042969 65.007812 199.042969 68.183594 C 199.042969 70.984375 198.851562 73.339844 198.472656 75.171875 C 198.089844 77.023438 197.535156 78.515625 196.824219 79.601562 C 196.109375 80.707031 195.226562 81.492188 194.21875 81.9375 C 193.222656 82.378906 192.105469 82.601562 190.894531 82.601562 M 214.421875 116.675781 C 214.636719 116.460938 214.832031 116.253906 215.007812 116.058594 L 214.742188 115.589844 C 214.320312 116.121094 213.84375 116.523438 213.324219 116.792969 C 212.699219 117.117188 212.085938 117.277344 211.496094 117.277344 C 210.164062 117.277344 209.191406 116.578125 208.601562 115.199219 C 208.046875 113.90625 207.640625 112.441406 207.386719 110.84375 C 207.214844 109.804688 207.097656 108.503906 207.035156 106.980469 C 206.972656 105.457031 206.910156 103.875 206.847656 102.234375 C 206.785156 100.617188 206.699219 99.007812 206.59375 97.449219 C 206.492188 95.917969 206.3125 94.53125 206.0625 93.335938 C 205.652344 91.316406 204.949219 89.648438 203.972656 88.378906 C 202.988281 87.105469 201.898438 86.066406 200.730469 85.292969 C 199.5625 84.519531 198.398438 83.964844 197.277344 83.636719 C 196.136719 83.308594 195.226562 83.082031 194.5625 82.960938 L 194.339844 82.921875 L 194.339844 82.28125 L 194.566406 82.242188 C 196.941406 81.828125 198.867188 81.003906 200.296875 79.792969 C 201.730469 78.578125 202.84375 77.222656 203.601562 75.769531 C 204.359375 74.3125 204.859375 72.867188 205.085938 71.46875 C 205.3125 70.058594 205.429688 68.890625 205.429688 68 C 205.429688 66.210938 205.125 64.273438 204.527344 62.238281 C 203.929688 60.214844 202.902344 58.378906 201.464844 56.773438 C 199.871094 54.941406 198.140625 53.820312 196.320312 53.4375 C 194.457031 53.046875 192.273438 52.851562 189.824219 52.851562 C 189.324219 52.851562 188.828125 52.863281 188.328125 52.894531 C 187.835938 52.925781 187.324219 52.941406 186.800781 52.941406 C 186.335938 53 185.820312 53.046875 185.304688 53.078125 C 184.8125 53.109375 184.300781 53.121094 183.777344 53.121094 L 172.078125 53.121094 L 172.078125 53.855469 L 179.070312 53.855469 L 179.070312 116.824219 L 172.078125 116.824219 L 172.078125 117.554688 L 191.820312 117.554688 L 191.820312 116.824219 L 184.824219 116.824219 L 184.824219 83.332031 L 191.398438 83.332031 C 192.121094 83.332031 192.984375 83.410156 193.960938 83.566406 C 194.972656 83.722656 195.964844 84.222656 196.902344 85.042969 C 197.835938 85.859375 198.65625 87.152344 199.339844 88.890625 C 200.019531 90.613281 200.449219 93.035156 200.617188 96.09375 L 201.058594 104.398438 C 201.183594 106.683594 201.40625 108.71875 201.714844 110.433594 C 202.023438 112.128906 202.511719 113.574219 203.167969 114.726562 C 203.808594 115.867188 204.675781 116.734375 205.738281 117.316406 C 206.808594 117.898438 208.171875 118.191406 209.796875 118.191406 C 210.648438 118.191406 211.378906 118.121094 211.96875 117.972656 C 212.546875 117.828125 213.042969 117.636719 213.441406 117.410156 C 213.832031 117.183594 214.164062 116.933594 214.421875 116.675781 "/>
<path fill-rule="nonzero" fill="rgb(3.137207%, 4.31366%, 5.882263%)" fill-opacity="1" d="M 237.496094 53.855469 L 237.496094 53.125 L 217.757812 53.125 L 217.757812 53.855469 L 224.75 53.855469 L 224.75 116.824219 L 217.757812 116.824219 L 217.757812 117.554688 L 237.496094 117.554688 L 237.496094 116.824219 L 230.503906 116.824219 L 230.503906 53.855469 Z M 237.496094 53.855469 "/>
<path fill-rule="nonzero" fill="rgb(3.137207%, 4.31366%, 5.882263%)" fill-opacity="1" d="M 274.398438 56.027344 C 275.492188 57.019531 276.554688 58.597656 277.550781 60.71875 C 278.523438 62.789062 279.375 65.667969 280.078125 69.277344 L 280.277344 69.277344 L 280.277344 53.125 L 242.515625 53.125 L 242.515625 69.277344 L 242.710938 69.277344 C 243.417969 65.664062 244.265625 62.785156 245.238281 60.71875 C 246.238281 58.601562 247.296875 57.019531 248.390625 56.027344 C 249.492188 55.023438 250.609375 54.402344 251.703125 54.179688 C 252.765625 53.964844 253.738281 53.855469 254.589844 53.855469 L 258.519531 53.855469 L 258.519531 116.824219 L 251.523438 116.824219 L 251.523438 117.554688 L 271.265625 117.554688 L 271.265625 116.824219 L 264.273438 116.824219 L 264.273438 53.855469 L 268.199219 53.855469 C 269.050781 53.855469 270.023438 53.964844 271.089844 54.179688 C 272.183594 54.40625 273.296875 55.023438 274.398438 56.027344 "/>
<path fill-rule="nonzero" fill="rgb(3.137207%, 4.31366%, 5.882263%)" fill-opacity="1" d="M 327.152344 53.125 L 314.214844 53.125 L 314.214844 53.855469 L 320.695312 53.855469 L 308.402344 87.015625 L 295.394531 53.855469 L 301.824219 53.855469 L 301.824219 53.125 L 283.089844 53.125 L 283.089844 53.855469 L 288.734375 53.855469 L 303 90.359375 L 303 116.824219 L 296.003906 116.824219 L 296.003906 117.554688 L 315.746094 117.554688 L 315.746094 116.824219 L 308.753906 116.824219 L 308.769531 87.34375 L 321.125 53.855469 L 327.152344 53.855469 Z M 327.152344 53.125 "/>
<path fill-rule="nonzero" fill="rgb(3.137207%, 4.31366%, 5.882263%)" fill-opacity="1" d="M 153.050781 53.101562 L 153.050781 53.820312 L 159.636719 53.820312 L 159.636719 95.667969 C 159.636719 97.8125 159.574219 99.617188 159.449219 101.078125 C 159.328125 102.539062 159.152344 103.789062 158.925781 104.832031 C 158.699219 105.875 158.433594 106.785156 158.125 107.558594 C 157.816406 108.335938 157.453125 109.109375 157.042969 109.886719 C 155.765625 112.390625 154.242188 114.132812 152.476562 115.117188 C 150.703125 116.101562 148.667969 116.589844 146.363281 116.589844 C 144.714844 116.589844 143.257812 116.265625 141.980469 115.609375 C 140.703125 114.953125 139.632812 113.863281 138.769531 112.34375 C 137.90625 110.824219 137.257812 108.828125 136.824219 106.355469 C 136.394531 103.878906 136.175781 100.855469 136.175781 97.277344 L 136.175781 53.820312 L 142.761719 53.820312 L 142.761719 53.101562 L 123.417969 53.101562 L 123.417969 53.820312 L 130.003906 53.820312 L 130.003906 96.382812 C 130.003906 103.65625 131.308594 109.050781 133.921875 112.570312 C 136.535156 116.085938 140.3125 117.84375 145.253906 117.84375 C 148.503906 117.84375 151.117188 117.1875 153.09375 115.875 C 155.070312 114.566406 156.613281 112.835938 157.722656 110.691406 C 158.875 108.484375 159.636719 106.355469 160.007812 104.296875 C 160.378906 102.238281 160.5625 99.960938 160.5625 97.457031 L 160.5625 53.820312 L 167.148438 53.820312 L 167.148438 53.101562 Z M 153.050781 53.101562 "/>
<path fill-rule="nonzero" fill="rgb(10.195923%, 9.01947%, 10.588074%)" fill-opacity="1" stroke-width="1" stroke-linecap="butt" stroke-linejoin="miter" stroke="rgb(10.195923%, 9.01947%, 10.588074%)" stroke-opacity="1" stroke-miterlimit="10" d="M 0.000318253 -0.00152005 L 301.333368 -0.331047 " transform="matrix(0.995745, 0, 0, -0.995745, 23.495777, 122.30708)"/>
</svg>
