<?xml version="1.0" encoding="UTF-8"?>
<svg xmlns="http://www.w3.org/2000/svg" xmlns:xlink="http://www.w3.org/1999/xlink" width="352.8pt" height="138.6pt" viewBox="0 0 352.8 138.6">
<defs>
<clipPath id="clip-0">
<path clip-rule="nonzero" d="M 0.40625 0 L 352.191406 0 L 352.191406 138.199219 L 0.40625 138.199219 Z M 0.40625 0 "/>
</clipPath>
</defs>
<g clip-path="url(#clip-0)">
<rect x="-35.28" y="-13.86" width="423.36" height="166.32" fill="rgb(10.195923%, 9.01947%, 10.588074%)" fill-opacity="1"/>
</g>
<path fill-rule="nonzero" fill="rgb(56.863403%, 56.079102%, 55.686951%)" fill-opacity="1" d="M 93.71875 89.144531 C 93.644531 89.289062 93.570312 89.429688 93.496094 89.566406 C 93.558594 89.441406 93.628906 89.3125 93.71875 89.144531 M 126.128906 49.519531 C 125.648438 47.300781 122.550781 46.570312 119.527344 46.675781 C 116.949219 46.765625 114.445312 47.507812 113.382812 47.933594 C 112.324219 48.363281 111.222656 48.867188 110.1875 49.410156 C 109.609375 49.710938 109.109375 50.144531 108.578125 50.523438 C 107.742188 51.125 106.941406 51.773438 106.152344 52.441406 C 104.558594 53.796875 103.027344 55.246094 101.59375 56.792969 C 101.128906 57.296875 100.671875 57.808594 100.242188 58.347656 L 97.359375 62.148438 C 97.355469 62.15625 97.347656 62.160156 97.339844 62.171875 L 95.128906 65.949219 C 95.125 65.953125 95.121094 65.960938 95.117188 65.96875 C 94.320312 67.640625 93.527344 69.3125 92.734375 70.984375 C 92.714844 70.9375 92.695312 70.886719 92.675781 70.839844 C 92.628906 71.214844 92.472656 71.542969 92.304688 71.871094 C 92.105469 72.257812 91.863281 72.621094 91.65625 73.003906 C 91.382812 73.511719 91.09375 74.011719 90.835938 74.523438 C 90.136719 75.917969 89.4375 77.363281 88.964844 78.890625 C 88.65625 79.914062 88.398438 81.046875 88.582031 82.121094 C 88.855469 83.699219 89.996094 85.089844 90.765625 86.425781 C 91.816406 88.257812 92.515625 90.210938 93.402344 92.117188 C 93.820312 93.015625 94.3125 93.746094 94.667969 94.679688 C 95.175781 96.035156 95.808594 97.464844 95.777344 98.957031 C 95.761719 99.917969 95.515625 100.5625 95.003906 101.328125 C 95 101.433594 94.996094 101.515625 94.992188 101.621094 C 95.519531 102.5625 96.046875 103.476562 96.671875 104.410156 C 96.789062 104.585938 96.683594 105.121094 96.617188 105.273438 C 96.441406 105.679688 96.800781 104.558594 97.054688 103.761719 C 97.0625 103.742188 97.066406 103.726562 97.074219 103.703125 C 97.324219 102.894531 97.4375 102.039062 97.667969 101.238281 C 98.285156 99.109375 98.570312 97.214844 97.714844 95.066406 C 97.378906 94.234375 96.777344 93.589844 96.285156 92.863281 C 95.417969 91.589844 94.644531 90.226562 93.847656 88.898438 C 93.273438 87.941406 92.695312 86.980469 92.121094 86.023438 C 92.117188 86.015625 92.109375 86.007812 92.105469 86 C 92.105469 86 91.042969 83.949219 91.039062 83.949219 C 90.671875 83.234375 90.359375 82.417969 90.285156 81.578125 C 90.203125 80.703125 90.480469 79.933594 90.738281 79.125 C 91.4375 76.957031 92.230469 74.761719 93.21875 72.726562 C 94.238281 70.625 95.421875 68.488281 96.652344 66.519531 C 96.652344 66.519531 100.402344 60.800781 100.554688 60.570312 C 100.554688 60.566406 100.558594 60.5625 100.5625 60.558594 C 102.574219 57.929688 105.953125 53.617188 108.457031 51.953125 C 108.945312 51.632812 111.175781 50.417969 111.792969 50.066406 C 111.800781 50.066406 111.804688 50.0625 111.808594 50.058594 C 113.828125 49.089844 116.167969 48.277344 118.382812 48.105469 C 120.160156 47.972656 121.929688 48.46875 123.269531 49.21875 C 123.28125 49.226562 123.292969 49.234375 123.304688 49.242188 C 123.390625 49.15625 123.480469 49.070312 123.574219 48.984375 C 123.660156 48.902344 123.792969 48.898438 123.886719 48.980469 C 124.222656 49.265625 124.996094 49.929688 125.300781 50.191406 C 125.375 50.253906 125.472656 50.265625 125.5625 50.21875 C 125.636719 50.183594 125.726562 50.140625 125.839844 50.105469 C 126.253906 49.972656 126.132812 49.53125 126.128906 49.519531 "/>
<path fill-rule="nonzero" fill="rgb(56.863403%, 56.079102%, 55.686951%)" fill-opacity="1" d="M 109.214844 36.667969 C 108.042969 38.453125 106.339844 39.960938 104.796875 41.0625 C 103.957031 41.664062 103.222656 42.320312 102.296875 42.6875 C 100.441406 43.421875 98.476562 43.820312 96.507812 43.664062 C 94.429688 43.5 92.113281 42.738281 90.253906 41.664062 C 87.320312 39.96875 84.210938 36.792969 83.355469 33.21875 C 82.996094 31.710938 83.496094 29.984375 84.613281 28.964844 C 84.621094 28.957031 90.234375 23.839844 90.234375 23.839844 C 91.398438 22.78125 92.566406 21.726562 93.734375 20.667969 C 94.390625 20.074219 95.09375 19.503906 95.71875 18.871094 C 96.152344 18.4375 96.550781 17.972656 96.945312 17.496094 C 97.335938 17.972656 97.734375 18.4375 98.167969 18.871094 C 98.796875 19.503906 99.496094 20.074219 100.152344 20.667969 C 101.320312 21.726562 102.488281 22.78125 103.652344 23.839844 C 104.917969 24.992188 106.179688 26.144531 107.445312 27.296875 C 109.214844 28.914062 110.988281 30.414062 110.59375 33.210938 C 110.421875 34.445312 109.910156 35.605469 109.214844 36.667969 M 82.742188 28.59375 C 82.519531 28.566406 82.304688 28.453125 82.144531 28.289062 C 81.84375 25.359375 82.207031 22.367188 83.359375 19.722656 C 84.492188 17.117188 86.273438 14.785156 88.519531 13.230469 C 88.609375 13.136719 88.742188 13.054688 88.902344 12.976562 C 89.363281 12.75 90.039062 12.585938 90.390625 12.5 C 91.171875 12.3125 91.769531 12.4375 92.378906 12.980469 C 93.191406 13.699219 93.996094 14.421875 94.804688 15.140625 C 95.261719 15.542969 95.675781 15.992188 96.070312 16.453125 C 92.925781 19.675781 89.667969 22.742188 86.328125 25.765625 C 86.289062 25.796875 84.445312 27.464844 84.445312 27.464844 C 83.972656 27.886719 83.417969 28.675781 82.742188 28.59375 M 99.082031 15.140625 C 99.890625 14.421875 100.695312 13.699219 101.507812 12.980469 C 102.117188 12.4375 102.71875 12.3125 103.492188 12.5 C 103.96875 12.613281 105.039062 12.875 105.371094 13.234375 C 105.3125 13.171875 105.25 13.105469 105.191406 13.039062 C 106.351562 13.742188 107.390625 14.636719 108.328125 15.691406 C 109.984375 17.554688 111.066406 20 111.585938 22.464844 C 111.980469 24.351562 112.003906 26.324219 111.757812 28.273438 C 111.59375 28.445312 111.378906 28.566406 111.144531 28.59375 C 110.46875 28.675781 109.914062 27.886719 109.441406 27.464844 C 109.441406 27.464844 107.597656 25.796875 107.558594 25.765625 C 104.21875 22.742188 100.964844 19.675781 97.816406 16.453125 C 98.210938 15.992188 98.625 15.542969 99.082031 15.140625 M 113.03125 24.640625 C 112.5 18.867188 109.144531 13.121094 104.289062 10.320312 C 103.96875 10.140625 103.636719 9.972656 103.28125 9.933594 C 103.246094 9.929688 103.203125 9.925781 103.164062 9.921875 C 102.820312 9.910156 102.453125 10.058594 102.246094 10.347656 C 101.605469 10.539062 100.714844 11.644531 100.304688 12.042969 C 99.847656 12.480469 99.410156 12.9375 98.980469 13.402344 C 98.304688 14.128906 97.628906 14.84375 96.945312 15.554688 C 96.257812 14.84375 95.582031 14.128906 94.910156 13.402344 C 94.476562 12.9375 94.039062 12.480469 93.582031 12.042969 C 93.203125 11.675781 92.417969 10.707031 91.796875 10.40625 C 91.601562 10.199219 91.332031 10.054688 91.058594 10.023438 C 90.488281 9.964844 89.953125 10.128906 89.457031 10.4375 C 88.144531 11.265625 87.003906 12.308594 85.960938 13.453125 C 84.554688 15 83.367188 16.75 82.59375 18.667969 C 81.046875 22.5 80.671875 27.617188 81.492188 31.707031 C 82.414062 36.308594 85.171875 39.566406 88.738281 42.101562 C 94.039062 45.867188 100.757812 45.613281 105.976562 41.78125 C 107.757812 40.476562 109.289062 38.785156 110.464844 36.847656 C 111.0625 35.871094 111.605469 34.816406 111.984375 33.71875 C 112.371094 32.597656 112.351562 31.273438 112.558594 30.085938 C 112.867188 28.308594 113.191406 26.375 113.03125 24.640625 "/>
<path fill-rule="nonzero" fill="rgb(56.863403%, 56.079102%, 55.686951%)" fill-opacity="1" d="M 102.136719 68.328125 C 102.136719 68.355469 102.136719 68.382812 102.128906 68.410156 C 102.007812 69.292969 101.875 70.164062 101.566406 70.960938 C 101.402344 71.382812 101.191406 71.789062 100.902344 72.171875 C 100.855469 72.226562 100.8125 72.28125 100.769531 72.335938 C 99.980469 73.289062 98.894531 73.917969 97.714844 74.105469 C 95.964844 74.375 94.492188 73.570312 93.496094 72.351562 C 93.203125 71.992188 92.949219 71.59375 92.742188 71.179688 C 92.71875 71.132812 92.695312 71.082031 92.675781 71.03125 C 91.992188 69.5625 91.957031 67.933594 92.03125 66.320312 L 92.21875 62.195312 C 92.21875 62.183594 92.222656 62.171875 92.222656 62.160156 C 92.359375 61.015625 92.453125 59.878906 92.519531 58.746094 C 92.558594 58.125 92.589844 57.507812 92.617188 56.890625 C 92.664062 55.882812 92.707031 54.878906 92.765625 53.871094 C 92.863281 52.15625 93.089844 50.417969 93.1875 48.683594 C 93.386719 45.183594 93.691406 41.671875 93.894531 38.175781 C 93.9375 36.851562 93.980469 35.5 94.027344 34.144531 L 95.140625 32.675781 C 95.183594 32.625 95.210938 32.566406 95.234375 32.503906 C 95.222656 32.695312 95.214844 32.882812 95.214844 33.0625 C 95.191406 35.503906 94.902344 37.824219 94.914062 40.179688 C 94.914062 40.25 94.910156 40.316406 94.90625 40.386719 C 94.667969 45.710938 94.652344 51.109375 94.003906 56.398438 C 93.925781 57.039062 93.890625 57.691406 93.867188 58.355469 C 93.847656 59.0625 93.839844 59.78125 93.816406 60.515625 C 93.808594 60.734375 93.800781 60.953125 93.789062 61.171875 C 93.6875 63.171875 93.476562 65.257812 93.632812 67.132812 C 93.703125 67.9375 93.648438 68.199219 93.753906 68.8125 C 93.773438 68.941406 93.804688 69.085938 93.839844 69.25 C 93.949219 69.746094 94.089844 70.277344 94.292969 70.769531 C 94.617188 71.566406 95.089844 72.257812 95.808594 72.527344 C 96.5 72.792969 97.375 72.894531 98.0625 72.601562 C 98.851562 72.265625 99.535156 71.59375 100 70.8125 C 100.335938 70.246094 100.558594 69.621094 100.625 69.019531 L 100.625 69.015625 C 100.640625 68.898438 100.644531 68.773438 100.644531 68.65625 C 100.644531 68.648438 100.777344 66.277344 100.777344 66.277344 L 100.667969 63.847656 L 100.410156 60.582031 L 100.25 58.542969 L 100.199219 57.878906 L 99.527344 46.816406 C 99.496094 45.074219 99.390625 43.328125 99.390625 41.59375 C 99.253906 38.59375 99.042969 35.585938 98.96875 32.578125 C 98.980469 32.613281 99 32.648438 99.023438 32.675781 L 99.941406 33.882812 L 100.25 37.683594 L 100.949219 47.136719 L 101.433594 54.625 L 101.589844 56.964844 L 101.714844 58.796875 L 102.042969 63.703125 Z M 102.136719 68.328125 "/>
<path fill-rule="nonzero" fill="rgb(56.863403%, 56.079102%, 55.686951%)" fill-opacity="1" d="M 103.238281 96.300781 C 103.035156 96.902344 102.8125 97.464844 102.554688 98.046875 C 101.84375 99.429688 101.125 100.804688 100.515625 102.242188 C 100.140625 103.128906 99.8125 104.039062 99.460938 104.933594 C 99.441406 104.996094 99.417969 105.050781 99.394531 105.109375 C 99.320312 105.300781 99.238281 105.476562 99.15625 105.628906 C 99.023438 105.871094 98.835938 106.0625 98.65625 106.265625 C 98.421875 106.539062 98.351562 106.773438 98.105469 106.398438 C 97.917969 106.113281 97.765625 105.804688 97.640625 105.480469 C 97.566406 105.285156 97.308594 104.734375 97.445312 104.53125 C 98.113281 103.535156 98.445312 102.722656 99.007812 101.710938 C 99.21875 101.328125 99.433594 100.941406 99.652344 100.542969 C 100.089844 99.753906 100.507812 98.953125 100.785156 98.089844 C 100.988281 97.457031 101.117188 96.789062 101.117188 96.117188 C 101.117188 96.019531 101.085938 95.460938 101.03125 95.015625 L 100.816406 94.597656 C 100.527344 94.035156 100.238281 93.476562 99.945312 92.921875 C 99.582031 92.234375 99.214844 91.546875 98.84375 90.863281 C 98.152344 89.578125 97.453125 88.292969 96.761719 87 C 96.746094 86.972656 96.734375 86.945312 96.71875 86.917969 C 96.363281 86.261719 96.011719 85.597656 95.667969 84.9375 C 94.199219 82.136719 92.785156 79.304688 91.394531 76.457031 C 91.105469 75.859375 90.8125 75.265625 90.523438 74.664062 C 88.847656 71.207031 87.195312 67.726562 85.5 64.242188 C 84.144531 61.460938 82.792969 58.769531 81.421875 55.996094 C 80.949219 55.035156 80.429688 54.046875 80.574219 53.195312 C 80.75 52.132812 81.398438 51.136719 82.0625 50.167969 C 82.304688 49.808594 82.550781 49.460938 82.773438 49.109375 C 82.863281 48.972656 82.945312 48.839844 83.027344 48.703125 C 84.542969 46.148438 86.058594 43.597656 87.574219 41.042969 C 88.542969 39.410156 89.511719 37.773438 90.484375 36.140625 C 91.199219 34.929688 91.917969 33.722656 92.636719 32.511719 C 93.058594 31.800781 93.589844 30.414062 94.230469 29.914062 C 94.402344 29.78125 94.644531 29.738281 94.820312 29.863281 C 95.191406 30.125 95.207031 30.835938 95.21875 31.25 C 95.230469 31.613281 95.242188 31.984375 95.1875 32.34375 C 95.121094 32.773438 94.917969 33.035156 94.675781 33.375 C 94.246094 33.96875 93.789062 34.539062 93.300781 35.082031 C 92.847656 35.589844 92.417969 36.214844 92.035156 36.792969 C 91.230469 38.007812 90.542969 39.246094 89.832031 40.53125 C 88.507812 42.917969 87.195312 45.320312 85.785156 47.652344 C 85.3125 48.4375 84.808594 49.210938 84.335938 50.003906 C 84.132812 50.34375 83.9375 50.6875 83.75 51.039062 C 83.59375 51.332031 83.445312 51.632812 83.304688 51.9375 C 83.015625 52.582031 82.609375 53.394531 82.609375 54.125 C 82.609375 54.878906 83.003906 55.589844 83.222656 56.265625 C 83.980469 58.632812 85.445312 60.773438 86.636719 62.921875 C 87.585938 64.636719 88.246094 66.375 89.105469 68.101562 C 89.109375 68.105469 90.089844 69.992188 91.515625 72.738281 C 91.761719 73.207031 92.019531 73.703125 92.285156 74.222656 C 93.632812 76.804688 95.234375 79.890625 96.761719 82.832031 C 97.132812 83.546875 97.5 84.25 97.855469 84.9375 C 98.621094 86.402344 99.339844 87.789062 99.96875 89.003906 C 100.3125 89.664062 100.628906 90.269531 100.910156 90.808594 C 101.667969 92.265625 102.175781 93.25 102.292969 93.46875 C 102.304688 93.5 102.320312 93.527344 102.335938 93.5625 C 102.601562 94.195312 103.4375 95.1875 103.253906 95.828125 C 103.292969 95.980469 103.292969 96.140625 103.238281 96.300781 "/>
<path fill-rule="nonzero" fill="rgb(56.863403%, 56.079102%, 55.686951%)" fill-opacity="1" d="M 114.683594 38.746094 C 114.695312 38.992188 114.679688 39.230469 114.589844 39.46875 C 114.253906 40.351562 113.191406 41.445312 112.542969 42.070312 C 111.0625 43.503906 109.238281 44.628906 107.636719 45.890625 C 106.273438 46.964844 104.660156 47.660156 103.363281 48.820312 C 100.917969 51.003906 98.515625 53.246094 96.175781 55.554688 C 95.003906 56.707031 93.847656 57.878906 92.707031 59.066406 C 91.644531 60.175781 90.4375 61.269531 89.667969 62.644531 C 89.222656 63.445312 88.878906 64.449219 88.253906 65.113281 C 87.734375 65.671875 86.871094 66.058594 86.160156 66.210938 C 85.15625 66.425781 84 66.726562 82.988281 66.546875 C 81.355469 66.257812 80.152344 64.894531 79.101562 63.523438 C 77.457031 61.378906 76.238281 58.910156 74.824219 56.585938 C 73.410156 54.257812 70.621094 51.476562 68.371094 50.105469 C 68.960938 50.210938 70.035156 49.222656 70.539062 48.792969 C 70.757812 48.605469 72.792969 50.953125 74.308594 52.84375 C 75.515625 54.34375 76.558594 56.054688 77.28125 57.296875 C 78.070312 58.65625 78.777344 60.070312 79.679688 61.347656 C 80.125 61.984375 80.617188 62.585938 81.179688 63.101562 C 83.253906 65.011719 86.246094 63.617188 88.066406 62.058594 C 88.359375 61.808594 88.664062 61.578125 88.945312 61.308594 C 89.695312 60.582031 90.429688 59.820312 91.132812 59.042969 C 92.734375 57.277344 94.46875 55.667969 96.132812 53.957031 C 97.363281 52.695312 98.59375 51.425781 99.867188 50.210938 C 101.195312 48.945312 102.777344 47.8125 104.230469 46.714844 L 107.769531 43.679688 C 108.984375 42.59375 110.800781 41.726562 111.960938 40.484375 C 112.015625 40.429688 112.070312 40.371094 112.128906 40.308594 C 112.921875 39.144531 112.78125 37.378906 112.144531 35.992188 C 111.730469 35.085938 111.636719 34.046875 111.851562 33.066406 C 112.1875 31.507812 112.601562 29.929688 112.832031 28.410156 C 112.492188 30.664062 113.527344 33.5 114.167969 35.683594 C 114.222656 35.882812 114.28125 36.074219 114.332031 36.265625 C 114.558594 37.101562 114.804688 37.941406 114.683594 38.746094 "/>
<path fill-rule="nonzero" fill="rgb(56.863403%, 56.079102%, 55.686951%)" fill-opacity="1" d="M 100.652344 89.457031 C 100.617188 89.390625 100.582031 89.320312 100.546875 89.253906 C 100.582031 89.320312 100.617188 89.390625 100.652344 89.457031 M 68.371094 50.105469 C 68.480469 50.140625 68.570312 50.183594 68.644531 50.21875 C 68.730469 50.265625 68.832031 50.253906 68.90625 50.191406 C 69.210938 49.929688 70.546875 48.902344 70.632812 48.984375 C 70.722656 49.070312 70.8125 49.15625 70.902344 49.242188 C 70.914062 49.234375 70.929688 49.226562 70.9375 49.21875 C 72.273438 48.46875 74.046875 47.972656 75.824219 48.105469 C 78.042969 48.277344 80.378906 49.089844 82.398438 50.058594 C 82.402344 50.0625 82.410156 50.066406 82.414062 50.066406 C 83.03125 50.417969 85.261719 51.632812 85.75 51.957031 C 88.25 53.613281 91.636719 57.929688 93.644531 60.558594 C 93.648438 60.5625 93.652344 60.566406 93.65625 60.570312 C 93.808594 60.800781 97.554688 66.519531 97.558594 66.519531 C 98.785156 68.488281 99.96875 70.625 100.988281 72.726562 C 101.976562 74.761719 102.769531 76.957031 103.46875 79.125 C 103.726562 79.933594 104 80.703125 103.921875 81.578125 C 103.851562 82.417969 103.535156 83.238281 103.164062 83.949219 L 102.097656 86 C 102.097656 86.007812 102.09375 86.015625 102.085938 86.023438 C 101.511719 86.984375 100.9375 87.941406 100.359375 88.898438 C 99.5625 90.226562 98.789062 91.589844 97.921875 92.863281 C 97.429688 93.589844 96.824219 94.234375 96.496094 95.066406 C 95.636719 97.214844 95.925781 99.109375 96.539062 101.238281 C 96.769531 102.039062 96.882812 102.894531 97.132812 103.703125 C 97.140625 103.722656 97.144531 103.742188 97.152344 103.761719 C 97.40625 104.558594 97.765625 105.679688 97.589844 105.273438 C 97.523438 105.121094 97.417969 104.585938 97.535156 104.410156 C 98.160156 103.476562 98.6875 102.5625 99.214844 101.621094 C 99.210938 101.515625 99.207031 101.433594 99.203125 101.328125 C 98.691406 100.5625 98.445312 99.917969 98.425781 98.957031 C 98.398438 97.464844 99.03125 96.035156 99.542969 94.679688 C 99.894531 93.746094 100.386719 93.015625 100.804688 92.117188 C 101.691406 90.210938 102.390625 88.257812 103.441406 86.425781 C 104.210938 85.089844 105.351562 83.699219 105.625 82.121094 C 105.808594 81.042969 105.554688 79.914062 105.238281 78.890625 C 104.769531 77.363281 104.070312 75.917969 103.371094 74.523438 C 103.113281 74.011719 102.820312 73.511719 102.550781 73.003906 C 102.347656 72.621094 102.105469 72.257812 101.902344 71.871094 C 101.734375 71.542969 101.578125 71.214844 101.53125 70.84375 C 101.511719 70.886719 101.492188 70.9375 101.472656 70.984375 C 100.679688 69.3125 99.882812 67.640625 99.089844 65.96875 C 99.085938 65.960938 99.082031 65.953125 99.078125 65.949219 L 96.863281 62.171875 C 96.859375 62.164062 96.855469 62.15625 96.847656 62.144531 L 93.964844 58.347656 C 93.535156 57.808594 93.078125 57.296875 92.609375 56.789062 C 91.179688 55.246094 89.648438 53.796875 88.054688 52.441406 C 87.269531 51.769531 86.464844 51.125 85.628906 50.527344 C 85.097656 50.144531 84.597656 49.710938 84.019531 49.410156 C 82.980469 48.867188 81.882812 48.359375 80.824219 47.933594 C 79.757812 47.507812 77.257812 46.765625 74.679688 46.675781 C 71.652344 46.570312 68.558594 47.300781 68.078125 49.519531 C 68.074219 49.53125 67.953125 49.972656 68.371094 50.105469 "/>
<path fill-rule="nonzero" fill="rgb(56.863403%, 56.079102%, 55.686951%)" fill-opacity="1" d="M 79.5 38.746094 C 79.492188 38.992188 79.503906 39.230469 79.59375 39.46875 C 79.929688 40.351562 80.992188 41.445312 81.640625 42.070312 C 83.125 43.503906 84.945312 44.628906 86.550781 45.890625 C 87.910156 46.964844 89.523438 47.660156 90.824219 48.820312 C 93.265625 51.003906 95.664062 53.246094 98.011719 55.554688 C 99.179688 56.707031 100.335938 57.878906 101.476562 59.066406 C 102.542969 60.175781 103.75 61.269531 104.515625 62.644531 C 104.964844 63.445312 105.308594 64.449219 105.929688 65.113281 C 106.449219 65.671875 107.3125 66.058594 108.023438 66.210938 C 109.027344 66.425781 110.183594 66.726562 111.195312 66.546875 C 112.832031 66.257812 114.03125 64.894531 115.082031 63.523438 C 116.726562 61.378906 117.949219 58.910156 119.359375 56.585938 C 120.773438 54.257812 123.5625 51.476562 125.816406 50.105469 C 125.222656 50.210938 124.148438 49.222656 123.644531 48.792969 C 123.425781 48.605469 121.394531 50.953125 119.875 52.84375 C 118.667969 54.34375 117.625 56.054688 116.902344 57.296875 C 116.113281 58.65625 115.40625 60.070312 114.507812 61.347656 C 114.0625 61.984375 113.566406 62.585938 113.003906 63.101562 C 110.929688 65.011719 107.941406 63.617188 106.117188 62.058594 C 105.824219 61.808594 105.523438 61.578125 105.242188 61.308594 C 104.488281 60.582031 103.757812 59.820312 103.050781 59.042969 C 101.453125 57.277344 99.714844 55.667969 98.054688 53.957031 C 96.820312 52.695312 95.589844 51.425781 94.316406 50.210938 C 92.988281 48.945312 91.40625 47.8125 89.957031 46.714844 L 86.414062 43.679688 C 85.199219 42.59375 83.382812 41.726562 82.222656 40.484375 C 82.171875 40.429688 82.113281 40.371094 82.054688 40.308594 C 81.261719 39.144531 81.40625 37.378906 82.039062 35.992188 C 82.453125 35.085938 82.550781 34.046875 82.335938 33.066406 C 82 31.507812 81.582031 29.929688 81.351562 28.410156 C 81.691406 30.664062 80.65625 33.5 80.015625 35.683594 C 79.960938 35.882812 79.90625 36.074219 79.851562 36.265625 C 79.628906 37.101562 79.378906 37.941406 79.5 38.746094 "/>
<path fill-rule="nonzero" fill="rgb(56.863403%, 56.079102%, 55.686951%)" fill-opacity="1" d="M 90.925781 96.300781 C 91.128906 96.902344 91.351562 97.464844 91.605469 98.046875 C 92.316406 99.429688 93.039062 100.804688 93.648438 102.242188 C 94.023438 103.128906 94.347656 104.039062 94.703125 104.933594 C 94.722656 104.996094 94.746094 105.050781 94.765625 105.109375 C 94.84375 105.300781 94.925781 105.476562 95.007812 105.628906 C 95.140625 105.871094 95.328125 106.0625 95.507812 106.265625 C 95.742188 106.539062 95.8125 106.773438 96.054688 106.398438 C 96.242188 106.113281 96.398438 105.804688 96.519531 105.480469 C 96.597656 105.285156 96.855469 104.734375 96.71875 104.53125 C 96.050781 103.535156 95.71875 102.722656 95.15625 101.710938 C 94.945312 101.328125 94.730469 100.941406 94.511719 100.542969 C 94.074219 99.753906 93.65625 98.953125 93.378906 98.089844 C 93.175781 97.457031 93.046875 96.789062 93.046875 96.117188 C 93.046875 96.019531 93.078125 95.460938 93.132812 95.015625 L 93.347656 94.597656 C 93.636719 94.035156 93.925781 93.476562 94.21875 92.921875 C 94.582031 92.234375 94.949219 91.546875 95.320312 90.863281 C 96.007812 89.578125 96.707031 88.292969 97.402344 87 C 97.417969 86.972656 97.429688 86.945312 97.445312 86.917969 C 97.796875 86.261719 98.152344 85.597656 98.496094 84.9375 C 99.964844 82.136719 101.378906 79.304688 102.769531 76.457031 C 103.058594 75.859375 103.351562 75.265625 103.640625 74.664062 C 105.316406 71.207031 106.96875 67.726562 108.664062 64.242188 C 110.015625 61.460938 111.371094 58.769531 112.742188 55.996094 C 113.214844 55.035156 113.734375 54.046875 113.589844 53.195312 C 113.410156 52.132812 112.765625 51.136719 112.101562 50.167969 C 111.859375 49.808594 111.613281 49.460938 111.390625 49.109375 C 111.300781 48.972656 111.21875 48.839844 111.136719 48.703125 C 109.621094 46.148438 108.105469 43.597656 106.589844 41.042969 C 105.621094 39.410156 104.652344 37.773438 103.679688 36.140625 C 102.960938 34.929688 102.246094 33.722656 101.527344 32.511719 C 101.105469 31.800781 100.574219 30.414062 99.929688 29.914062 C 99.761719 29.78125 99.519531 29.738281 99.34375 29.863281 C 98.972656 30.125 98.957031 30.835938 98.941406 31.25 C 98.933594 31.613281 98.921875 31.984375 98.976562 32.34375 C 99.042969 32.773438 99.246094 33.035156 99.488281 33.375 C 99.917969 33.96875 100.375 34.539062 100.863281 35.082031 C 101.316406 35.589844 101.742188 36.214844 102.125 36.792969 C 102.933594 38.007812 103.621094 39.246094 104.332031 40.53125 C 105.65625 42.917969 106.96875 45.320312 108.378906 47.652344 C 108.851562 48.4375 109.355469 49.210938 109.828125 50.003906 C 110.027344 50.34375 110.226562 50.6875 110.414062 51.039062 C 110.570312 51.332031 110.71875 51.632812 110.855469 51.9375 C 111.148438 52.582031 111.554688 53.394531 111.554688 54.125 C 111.554688 54.878906 111.15625 55.589844 110.941406 56.265625 C 110.183594 58.632812 108.71875 60.773438 107.527344 62.921875 C 106.578125 64.636719 105.917969 66.375 105.058594 68.101562 C 105.054688 68.105469 104.074219 69.992188 102.648438 72.738281 C 102.402344 73.207031 102.144531 73.703125 101.875 74.222656 C 100.53125 76.804688 98.929688 79.890625 97.402344 82.832031 C 97.03125 83.546875 96.664062 84.25 96.308594 84.9375 C 95.542969 86.402344 94.824219 87.789062 94.195312 89.003906 C 93.851562 89.664062 93.535156 90.269531 93.253906 90.808594 C 92.496094 92.265625 91.984375 93.25 91.871094 93.46875 C 91.855469 93.5 91.839844 93.527344 91.828125 93.5625 C 91.5625 94.195312 90.726562 95.1875 90.90625 95.828125 C 90.871094 95.980469 90.871094 96.140625 90.925781 96.300781 "/>
<path fill-rule="nonzero" fill="rgb(100%, 100%, 100%)" fill-opacity="1" d="M 55.707031 70.15625 C 53.917969 72.875 51.390625 74.253906 48.195312 74.253906 C 47.460938 74.253906 46.621094 74.191406 45.699219 74.070312 C 44.757812 73.945312 43.851562 73.757812 43.007812 73.511719 L 42.808594 73.453125 L 42.808594 41.949219 L 43.035156 41.910156 C 43.386719 41.847656 43.894531 41.78125 44.539062 41.722656 C 45.207031 41.660156 45.949219 41.628906 46.742188 41.628906 C 48.78125 41.628906 50.558594 41.882812 52.035156 42.375 C 53.53125 42.878906 54.765625 43.789062 55.703125 45.078125 C 56.625 46.355469 57.308594 48.066406 57.734375 50.164062 C 58.160156 52.25 58.371094 54.882812 58.371094 57.988281 C 58.371094 63.378906 57.476562 67.472656 55.707031 70.15625 M 63.839844 50.960938 C 63.015625 48.871094 61.855469 47.058594 60.394531 45.566406 C 58.933594 44.078125 57.183594 42.914062 55.1875 42.109375 C 53.191406 41.304688 50.988281 40.898438 48.636719 40.898438 C 48.054688 40.898438 47.472656 40.914062 46.914062 40.941406 C 46.363281 40.972656 45.773438 40.988281 45.164062 40.988281 C 44.609375 41.046875 44.011719 41.097656 43.414062 41.125 C 42.839844 41.15625 42.242188 41.171875 41.632812 41.171875 L 30.042969 41.171875 L 30.042969 41.90625 L 37.046875 41.90625 L 37.046875 104.957031 L 30.042969 104.957031 L 30.042969 105.691406 L 49.8125 105.691406 L 49.8125 104.957031 L 42.808594 104.957031 L 42.808594 74.175781 L 43.152344 74.265625 C 43.863281 74.445312 44.683594 74.613281 45.589844 74.761719 C 46.488281 74.910156 47.238281 74.984375 47.816406 74.984375 C 50.085938 74.984375 52.292969 74.59375 54.375 73.816406 C 56.453125 73.042969 58.304688 71.921875 59.871094 70.488281 C 61.433594 69.058594 62.707031 67.277344 63.65625 65.1875 C 64.601562 63.097656 65.082031 60.675781 65.082031 57.988281 C 65.082031 55.417969 64.664062 53.050781 63.839844 50.960938 "/>
<path fill-rule="nonzero" fill="rgb(100%, 100%, 100%)" fill-opacity="1" d="M 192.292969 70.6875 L 186.21875 70.6875 L 186.21875 41.960938 L 186.429688 41.910156 C 186.984375 41.789062 187.671875 41.707031 188.464844 41.675781 C 189.25 41.644531 190.019531 41.628906 190.78125 41.628906 C 191.890625 41.628906 193.03125 41.789062 194.164062 42.097656 C 195.324219 42.414062 196.386719 43.085938 197.320312 44.09375 C 198.25 45.097656 199.015625 46.59375 199.59375 48.542969 C 200.164062 50.480469 200.453125 53.074219 200.453125 56.25 C 200.453125 59.058594 200.261719 61.414062 199.882812 63.253906 C 199.496094 65.105469 198.941406 66.597656 198.234375 67.6875 C 197.515625 68.792969 196.632812 69.582031 195.621094 70.027344 C 194.625 70.464844 193.503906 70.6875 192.292969 70.6875 M 215.855469 104.8125 C 216.070312 104.597656 216.265625 104.390625 216.441406 104.195312 L 216.175781 103.722656 C 215.75 104.257812 215.273438 104.660156 214.753906 104.929688 C 214.128906 105.253906 213.515625 105.414062 212.925781 105.414062 C 211.589844 105.414062 210.617188 104.714844 210.023438 103.332031 C 209.472656 102.039062 209.0625 100.570312 208.808594 98.972656 C 208.636719 97.933594 208.519531 96.628906 208.457031 95.101562 C 208.394531 93.578125 208.332031 91.996094 208.269531 90.347656 C 208.207031 88.730469 208.121094 87.121094 208.015625 85.558594 C 207.914062 84.027344 207.734375 82.636719 207.484375 81.4375 C 207.074219 79.417969 206.371094 77.746094 205.390625 76.476562 C 204.40625 75.199219 203.3125 74.160156 202.144531 73.386719 C 200.972656 72.613281 199.808594 72.054688 198.6875 71.730469 C 197.546875 71.398438 196.628906 71.171875 195.96875 71.050781 L 195.746094 71.011719 L 195.746094 70.371094 L 195.972656 70.332031 C 198.347656 69.914062 200.277344 69.089844 201.707031 67.878906 C 203.144531 66.660156 204.257812 65.300781 205.019531 63.847656 C 205.777344 62.390625 206.277344 60.941406 206.503906 59.542969 C 206.734375 58.128906 206.847656 56.960938 206.847656 56.066406 C 206.847656 54.277344 206.542969 52.335938 205.945312 50.296875 C 205.347656 48.273438 204.316406 46.433594 202.878906 44.828125 C 201.285156 42.992188 199.550781 41.867188 197.726562 41.484375 C 195.863281 41.097656 193.671875 40.898438 191.222656 40.898438 C 190.722656 40.898438 190.222656 40.914062 189.726562 40.941406 C 189.230469 40.972656 188.71875 40.988281 188.195312 40.988281 C 187.726562 41.046875 187.210938 41.09375 186.695312 41.125 C 186.203125 41.15625 185.6875 41.171875 185.164062 41.171875 L 173.453125 41.171875 L 173.453125 41.90625 L 180.453125 41.90625 L 180.453125 104.960938 L 173.453125 104.960938 L 173.453125 105.691406 L 193.21875 105.691406 L 193.21875 104.960938 L 186.21875 104.960938 L 186.21875 71.421875 L 192.800781 71.421875 C 193.519531 71.421875 194.386719 71.5 195.367188 71.65625 C 196.378906 71.816406 197.371094 72.3125 198.3125 73.136719 C 199.242188 73.953125 200.066406 75.246094 200.75 76.988281 C 201.429688 78.714844 201.863281 81.140625 202.03125 84.199219 L 202.472656 92.515625 C 202.597656 94.808594 202.820312 96.84375 203.132812 98.558594 C 203.4375 100.257812 203.929688 101.703125 204.582031 102.859375 C 205.226562 104 206.09375 104.871094 207.15625 105.453125 C 208.226562 106.035156 209.59375 106.332031 211.222656 106.332031 C 212.074219 106.332031 212.804688 106.257812 213.394531 106.109375 C 213.976562 105.964844 214.472656 105.777344 214.871094 105.546875 C 215.265625 105.320312 215.597656 105.070312 215.855469 104.8125 "/>
<path fill-rule="nonzero" fill="rgb(100%, 100%, 100%)" fill-opacity="1" d="M 238.960938 41.90625 L 238.960938 41.171875 L 219.191406 41.171875 L 219.191406 41.90625 L 226.195312 41.90625 L 226.195312 104.960938 L 219.191406 104.960938 L 219.191406 105.691406 L 238.960938 105.691406 L 238.960938 104.960938 L 231.957031 104.960938 L 231.957031 41.90625 Z M 238.960938 41.90625 "/>
<path fill-rule="nonzero" fill="rgb(100%, 100%, 100%)" fill-opacity="1" d="M 275.914062 44.078125 C 277.011719 45.074219 278.070312 46.652344 279.070312 48.777344 C 280.042969 50.851562 280.894531 53.730469 281.601562 57.347656 L 281.800781 57.347656 L 281.800781 41.171875 L 243.988281 41.171875 L 243.988281 57.347656 L 244.183594 57.347656 C 244.890625 53.730469 245.742188 50.847656 246.714844 48.777344 C 247.710938 46.65625 248.773438 45.074219 249.871094 44.078125 C 250.972656 43.074219 252.089844 42.453125 253.183594 42.230469 C 254.25 42.015625 255.222656 41.90625 256.078125 41.90625 L 260.011719 41.90625 L 260.011719 104.957031 L 253.007812 104.957031 L 253.007812 105.691406 L 272.777344 105.691406 L 272.777344 104.957031 L 265.773438 104.957031 L 265.773438 41.90625 L 269.707031 41.90625 C 270.558594 41.90625 271.53125 42.015625 272.601562 42.230469 C 273.695312 42.453125 274.8125 43.074219 275.914062 44.078125 "/>
<path fill-rule="nonzero" fill="rgb(100%, 100%, 100%)" fill-opacity="1" d="M 328.738281 41.171875 L 315.785156 41.171875 L 315.785156 41.902344 L 322.277344 41.902344 L 309.964844 75.113281 L 296.941406 41.902344 L 303.375 41.902344 L 303.375 41.171875 L 284.617188 41.171875 L 284.617188 41.902344 L 290.269531 41.902344 L 304.554688 78.457031 L 304.554688 104.960938 L 297.550781 104.960938 L 297.550781 105.691406 L 317.320312 105.691406 L 317.320312 104.960938 L 310.316406 104.960938 L 310.332031 75.441406 L 322.703125 41.902344 L 328.738281 41.902344 Z M 328.738281 41.171875 "/>
<path fill-rule="nonzero" fill="rgb(100%, 100%, 100%)" fill-opacity="1" d="M 154.398438 41.152344 L 154.398438 41.871094 L 160.992188 41.871094 L 160.992188 83.773438 C 160.992188 85.921875 160.929688 87.730469 160.804688 89.191406 C 160.683594 90.65625 160.507812 91.910156 160.28125 92.953125 C 160.054688 93.996094 159.789062 94.910156 159.476562 95.683594 C 159.167969 96.460938 158.808594 97.238281 158.394531 98.011719 C 157.117188 100.519531 155.59375 102.265625 153.820312 103.25 C 152.050781 104.234375 150.007812 104.726562 147.703125 104.726562 C 146.050781 104.726562 144.589844 104.398438 143.3125 103.742188 C 142.035156 103.085938 140.960938 101.996094 140.097656 100.476562 C 139.230469 98.953125 138.582031 96.953125 138.148438 94.476562 C 137.71875 92 137.5 88.96875 137.5 85.386719 L 137.5 41.871094 L 144.09375 41.871094 L 144.09375 41.152344 L 124.726562 41.152344 L 124.726562 41.871094 L 131.320312 41.871094 L 131.320312 84.492188 C 131.320312 91.773438 132.625 97.175781 135.246094 100.699219 C 137.859375 104.222656 141.644531 105.980469 146.589844 105.980469 C 149.84375 105.980469 152.460938 105.324219 154.441406 104.011719 C 156.417969 102.699219 157.964844 100.964844 159.078125 98.816406 C 160.230469 96.609375 160.992188 94.476562 161.363281 92.414062 C 161.734375 90.355469 161.917969 88.074219 161.917969 85.566406 L 161.917969 41.871094 L 168.515625 41.871094 L 168.515625 41.152344 Z M 154.398438 41.152344 "/>
<path fill-rule="nonzero" fill="rgb(100%, 100%, 100%)" fill-opacity="1" stroke-width="1" stroke-linecap="butt" stroke-linejoin="miter" stroke="rgb(100%, 100%, 100%)" stroke-opacity="1" stroke-miterlimit="10" d="M -0.000552226 0.00107657 L 301.331434 -0.331913 " transform="matrix(0.997122, 0, 0, -0.997122, 25.602113, 111.352636)"/>
</svg>
